M48
; DRILL file {KiCad (5.1.6)-1} date 12/01/20 12:35:31
; FORMAT={-:-/ absolute / metric / decimal}
; #@! TF.CreationDate,2020-12-01T12:35:31-05:00
; #@! TF.GenerationSoftware,Kicad,Pcbnew,(5.1.6)-1
; #@! TF.FileFunction,Plated,1,2,PTH
FMAT,2
METRIC
T1C0.400
T2C0.762
T3C0.800
T4C0.900
T5C1.000
T6C1.100
T7C1.500
T8C4.000
%
G90
G05
T1
X36.83Y-81.534
X36.881Y-82.601
X36.914Y-83.686
X37.078Y-84.687
X40.132Y-52.832
X40.132Y-55.372
X40.386Y-47.752
X40.386Y-50.292
X46.99Y-86.614
X46.99Y-93.472
X49.276Y-93.98
X53.34Y-93.98
X55.372Y-86.868
X55.372Y-93.472
X57.404Y-71.12
X57.912Y-77.47
X58.42Y-71.12
X59.128Y-76.254
X59.436Y-71.12
X60.452Y-71.12
X82.987Y-86.431
X83.058Y-93.472
X85.344Y-93.98
X89.408Y-93.98
X91.44Y-86.614
X91.44Y-93.472
T2
X34.544Y-54.356
X34.544Y-64.516
T3
X32.766Y-60.452
X34.544Y-68.072
X36.322Y-102.108
X36.83Y-31.75
X92.356Y-55.88
X99.976Y-55.88
X74.356Y-102.088
X81.976Y-102.088
X49.53Y-45.212
X49.53Y-52.832
X53.246Y-91.492
X53.246Y-99.112
X92.356Y-102.088
X99.976Y-102.088
X85.246Y-91.492
X85.246Y-99.112
X74.356Y-59.492
X81.976Y-59.492
X50.956Y-73.152
X55.956Y-73.152
X38.354Y-102.088
X45.974Y-102.088
X50.956Y-68.152
X55.956Y-68.152
X49.246Y-91.492
X49.246Y-99.112
X56.356Y-102.088
X63.976Y-102.088
X92.356Y-59.492
X99.976Y-59.492
X74.356Y-55.88
X81.976Y-55.88
X89.246Y-91.492
X89.246Y-99.112
T4
X96.166Y-83.468
X96.166Y-86.008
X60.166Y-83.468
X60.166Y-86.008
X42.166Y-83.468
X42.166Y-86.008
X68.42Y-58.42
X68.42Y-60.96
X78.166Y-83.468
X78.166Y-86.008
T5
X85.852Y-38.354
X85.852Y-40.894
X85.852Y-43.434
X40.894Y-31.75
X40.894Y-34.29
X40.894Y-36.83
X43.434Y-31.75
X43.434Y-34.29
X43.434Y-36.83
X75.746Y-117.0
X78.246Y-117.0
X80.746Y-117.0
X93.746Y-75.0
X96.246Y-75.0
X98.746Y-75.0
X57.746Y-117.0
X60.246Y-117.0
X62.746Y-117.0
X75.746Y-75.0
X78.246Y-75.0
X80.746Y-75.0
X39.746Y-117.0
X42.246Y-117.0
X44.746Y-117.0
X84.836Y-28.956
X87.376Y-28.956
X93.746Y-117.0
X96.246Y-117.0
X98.746Y-117.0
X38.212Y-45.212
X38.212Y-47.752
X38.212Y-50.292
X38.212Y-52.832
X38.212Y-55.372
X38.212Y-57.912
X38.212Y-60.452
X38.212Y-62.992
X38.212Y-65.532
X38.212Y-68.072
X38.212Y-70.612
X38.212Y-73.152
X38.212Y-75.692
X38.212Y-78.232
X45.832Y-45.212
X45.832Y-47.752
X45.832Y-50.292
X45.832Y-52.832
X45.832Y-55.372
X45.832Y-57.912
X45.832Y-60.452
X45.832Y-62.992
X45.832Y-65.532
X45.832Y-68.072
X45.832Y-70.612
X45.832Y-73.152
X45.832Y-75.692
X45.832Y-78.232
T6
X93.98Y-48.006
X96.52Y-48.006
X99.06Y-48.006
T7
X39.914Y-91.75
X39.914Y-98.25
X44.414Y-91.75
X44.414Y-98.25
X94.016Y-91.75
X94.016Y-98.25
X98.516Y-91.75
X98.516Y-98.25
X60.92Y-40.132
X75.92Y-40.132
X75.982Y-91.75
X75.982Y-98.25
X80.482Y-91.75
X80.482Y-98.25
X57.948Y-91.75
X57.948Y-98.25
X62.448Y-91.75
X62.448Y-98.25
X62.774Y-65.076
X62.774Y-71.576
X67.274Y-65.076
X67.274Y-71.576
T8
X96.52Y-31.346
T0
M30
