%FSLAX45Y45*%
G04 Gerber Fmt 4.5, Leading zero omitted, Abs format (unit mm)*
G04 Created by KiCad (PCBNEW (5.1.6)-1) date 2020-12-01 12:35:32*
%MOMM*%
%LPD*%
G01*
G04 APERTURE LIST*
%TA.AperFunction,Profile*%
%ADD10C,0.150000*%
%TD*%
%ADD11C,0.200000*%
%ADD12C,0.300000*%
G04 APERTURE END LIST*
D10*
X10884000Y-2400000D02*
X10984000Y-2500000D01*
X10984000Y-12300000D02*
X10884000Y-12400000D01*
X2700000Y-12300000D02*
X2800000Y-12400000D01*
X2800000Y-2400000D02*
X2700000Y-2500000D01*
X2800000Y-2400000D02*
X10884000Y-2400000D01*
X10984000Y-2500000D02*
X10984000Y-12300000D01*
X2800000Y-12400000D02*
X10884000Y-12400000D01*
X2700000Y-2500000D02*
X2700000Y-12300000D01*
D11*
X3663000Y-8133400D02*
X3703000Y-8173400D01*
X3703000Y-8133400D02*
X3663000Y-8173400D01*
X3668097Y-8240097D02*
X3708097Y-8280097D01*
X3708097Y-8240097D02*
X3668097Y-8280097D01*
X3671426Y-8348561D02*
X3711426Y-8388561D01*
X3711426Y-8348561D02*
X3671426Y-8388561D01*
X3687753Y-8448710D02*
X3727753Y-8488710D01*
X3727753Y-8448710D02*
X3687753Y-8488710D01*
X3993200Y-5263200D02*
X4033200Y-5303200D01*
X4033200Y-5263200D02*
X3993200Y-5303200D01*
X3993200Y-5517200D02*
X4033200Y-5557200D01*
X4033200Y-5517200D02*
X3993200Y-5557200D01*
X4018600Y-4755200D02*
X4058600Y-4795200D01*
X4058600Y-4755200D02*
X4018600Y-4795200D01*
X4018600Y-5009200D02*
X4058600Y-5049200D01*
X4058600Y-5009200D02*
X4018600Y-5049200D01*
X4679000Y-8641400D02*
X4719000Y-8681400D01*
X4719000Y-8641400D02*
X4679000Y-8681400D01*
X4679000Y-9327200D02*
X4719000Y-9367200D01*
X4719000Y-9327200D02*
X4679000Y-9367200D01*
X4907600Y-9378000D02*
X4947600Y-9418000D01*
X4947600Y-9378000D02*
X4907600Y-9418000D01*
X5314000Y-9378000D02*
X5354000Y-9418000D01*
X5354000Y-9378000D02*
X5314000Y-9418000D01*
X5517200Y-8666800D02*
X5557200Y-8706800D01*
X5557200Y-8666800D02*
X5517200Y-8706800D01*
X5517200Y-9327200D02*
X5557200Y-9367200D01*
X5557200Y-9327200D02*
X5517200Y-9367200D01*
X5720400Y-7092000D02*
X5760400Y-7132000D01*
X5760400Y-7092000D02*
X5720400Y-7132000D01*
X5771200Y-7727000D02*
X5811200Y-7767000D01*
X5811200Y-7727000D02*
X5771200Y-7767000D01*
X5822000Y-7092000D02*
X5862000Y-7132000D01*
X5862000Y-7092000D02*
X5822000Y-7132000D01*
X5892836Y-7605364D02*
X5932836Y-7645364D01*
X5932836Y-7605364D02*
X5892836Y-7645364D01*
X5923600Y-7092000D02*
X5963600Y-7132000D01*
X5963600Y-7092000D02*
X5923600Y-7132000D01*
X6025200Y-7092000D02*
X6065200Y-7132000D01*
X6065200Y-7092000D02*
X6025200Y-7132000D01*
X8278687Y-8623113D02*
X8318687Y-8663113D01*
X8318687Y-8623113D02*
X8278687Y-8663113D01*
X8285800Y-9327200D02*
X8325800Y-9367200D01*
X8325800Y-9327200D02*
X8285800Y-9367200D01*
X8514400Y-9378000D02*
X8554400Y-9418000D01*
X8554400Y-9378000D02*
X8514400Y-9418000D01*
X8920800Y-9378000D02*
X8960800Y-9418000D01*
X8960800Y-9378000D02*
X8920800Y-9418000D01*
X9124000Y-8641400D02*
X9164000Y-8681400D01*
X9164000Y-8641400D02*
X9124000Y-8681400D01*
X9124000Y-9327200D02*
X9164000Y-9367200D01*
X9164000Y-9327200D02*
X9124000Y-9367200D01*
X3492500Y-5435600D02*
G75*
G03*
X3492500Y-5435600I-38100J0D01*
G01*
X3492500Y-6451600D02*
G75*
G03*
X3492500Y-6451600I-38100J0D01*
G01*
X3276600Y-6005200D02*
X3276600Y-6085200D01*
X3236600Y-6045200D02*
X3316600Y-6045200D01*
X3454400Y-6767200D02*
X3454400Y-6847200D01*
X3414400Y-6807200D02*
X3494400Y-6807200D01*
X3632200Y-10170800D02*
X3632200Y-10250800D01*
X3592200Y-10210800D02*
X3672200Y-10210800D01*
X3683000Y-3135000D02*
X3683000Y-3215000D01*
X3643000Y-3175000D02*
X3723000Y-3175000D01*
X9235600Y-5548000D02*
X9235600Y-5628000D01*
X9195600Y-5588000D02*
X9275600Y-5588000D01*
X9997600Y-5548000D02*
X9997600Y-5628000D01*
X9957600Y-5588000D02*
X10037600Y-5588000D01*
X7435600Y-10168800D02*
X7435600Y-10248800D01*
X7395600Y-10208800D02*
X7475600Y-10208800D01*
X8197600Y-10168800D02*
X8197600Y-10248800D01*
X8157600Y-10208800D02*
X8237600Y-10208800D01*
X4953000Y-4481200D02*
X4953000Y-4561200D01*
X4913000Y-4521200D02*
X4993000Y-4521200D01*
X4953000Y-5243200D02*
X4953000Y-5323200D01*
X4913000Y-5283200D02*
X4993000Y-5283200D01*
X5324600Y-9109200D02*
X5324600Y-9189200D01*
X5284600Y-9149200D02*
X5364600Y-9149200D01*
X5324600Y-9871200D02*
X5324600Y-9951200D01*
X5284600Y-9911200D02*
X5364600Y-9911200D01*
X9235600Y-10168800D02*
X9235600Y-10248800D01*
X9195600Y-10208800D02*
X9275600Y-10208800D01*
X9997600Y-10168800D02*
X9997600Y-10248800D01*
X9957600Y-10208800D02*
X10037600Y-10208800D01*
X8524600Y-9109200D02*
X8524600Y-9189200D01*
X8484600Y-9149200D02*
X8564600Y-9149200D01*
X8524600Y-9871200D02*
X8524600Y-9951200D01*
X8484600Y-9911200D02*
X8564600Y-9911200D01*
X7435600Y-5909200D02*
X7435600Y-5989200D01*
X7395600Y-5949200D02*
X7475600Y-5949200D01*
X8197600Y-5909200D02*
X8197600Y-5989200D01*
X8157600Y-5949200D02*
X8237600Y-5949200D01*
X5095600Y-7275200D02*
X5095600Y-7355200D01*
X5055600Y-7315200D02*
X5135600Y-7315200D01*
X5595600Y-7275200D02*
X5595600Y-7355200D01*
X5555600Y-7315200D02*
X5635600Y-7315200D01*
X3835400Y-10168800D02*
X3835400Y-10248800D01*
X3795400Y-10208800D02*
X3875400Y-10208800D01*
X4597400Y-10168800D02*
X4597400Y-10248800D01*
X4557400Y-10208800D02*
X4637400Y-10208800D01*
X5095600Y-6775200D02*
X5095600Y-6855200D01*
X5055600Y-6815200D02*
X5135600Y-6815200D01*
X5595600Y-6775200D02*
X5595600Y-6855200D01*
X5555600Y-6815200D02*
X5635600Y-6815200D01*
X4924600Y-9109200D02*
X4924600Y-9189200D01*
X4884600Y-9149200D02*
X4964600Y-9149200D01*
X4924600Y-9871200D02*
X4924600Y-9951200D01*
X4884600Y-9911200D02*
X4964600Y-9911200D01*
X5635600Y-10168800D02*
X5635600Y-10248800D01*
X5595600Y-10208800D02*
X5675600Y-10208800D01*
X6397600Y-10168800D02*
X6397600Y-10248800D01*
X6357600Y-10208800D02*
X6437600Y-10208800D01*
X9235600Y-5909200D02*
X9235600Y-5989200D01*
X9195600Y-5949200D02*
X9275600Y-5949200D01*
X9997600Y-5909200D02*
X9997600Y-5989200D01*
X9957600Y-5949200D02*
X10037600Y-5949200D01*
X7435600Y-5548000D02*
X7435600Y-5628000D01*
X7395600Y-5588000D02*
X7475600Y-5588000D01*
X8197600Y-5548000D02*
X8197600Y-5628000D01*
X8157600Y-5588000D02*
X8237600Y-5588000D01*
X8924600Y-9109200D02*
X8924600Y-9189200D01*
X8884600Y-9149200D02*
X8964600Y-9149200D01*
X8924600Y-9871200D02*
X8924600Y-9951200D01*
X8884600Y-9911200D02*
X8964600Y-9911200D01*
X9648420Y-8378620D02*
X9648420Y-8314980D01*
X9584780Y-8314980D01*
X9584780Y-8378620D01*
X9648420Y-8378620D01*
X9648420Y-8632620D02*
X9648420Y-8568980D01*
X9584780Y-8568980D01*
X9584780Y-8632620D01*
X9648420Y-8632620D01*
X6048420Y-8378620D02*
X6048420Y-8314980D01*
X5984780Y-8314980D01*
X5984780Y-8378620D01*
X6048420Y-8378620D01*
X6048420Y-8632620D02*
X6048420Y-8568980D01*
X5984780Y-8568980D01*
X5984780Y-8632620D01*
X6048420Y-8632620D01*
X4248420Y-8378620D02*
X4248420Y-8314980D01*
X4184780Y-8314980D01*
X4184780Y-8378620D01*
X4248420Y-8378620D01*
X4248420Y-8632620D02*
X4248420Y-8568980D01*
X4184780Y-8568980D01*
X4184780Y-8632620D01*
X4248420Y-8632620D01*
X6873820Y-5873820D02*
X6873820Y-5810180D01*
X6810180Y-5810180D01*
X6810180Y-5873820D01*
X6873820Y-5873820D01*
X6873820Y-6127820D02*
X6873820Y-6064180D01*
X6810180Y-6064180D01*
X6810180Y-6127820D01*
X6873820Y-6127820D01*
X7848420Y-8378620D02*
X7848420Y-8314980D01*
X7784780Y-8314980D01*
X7784780Y-8378620D01*
X7848420Y-8378620D01*
X7848420Y-8632620D02*
X7848420Y-8568980D01*
X7784780Y-8568980D01*
X7784780Y-8632620D01*
X7848420Y-8632620D01*
X8585200Y-3885400D02*
X8635200Y-3835400D01*
X8585200Y-3785400D01*
X8535200Y-3835400D01*
X8585200Y-3885400D01*
X8585200Y-4139400D02*
X8635200Y-4089400D01*
X8585200Y-4039400D01*
X8535200Y-4089400D01*
X8585200Y-4139400D01*
X8585200Y-4393400D02*
X8635200Y-4343400D01*
X8585200Y-4293400D01*
X8535200Y-4343400D01*
X8585200Y-4393400D01*
X4089400Y-3225000D02*
X4139400Y-3175000D01*
X4089400Y-3125000D01*
X4039400Y-3175000D01*
X4089400Y-3225000D01*
X4089400Y-3479000D02*
X4139400Y-3429000D01*
X4089400Y-3379000D01*
X4039400Y-3429000D01*
X4089400Y-3479000D01*
X4089400Y-3733000D02*
X4139400Y-3683000D01*
X4089400Y-3633000D01*
X4039400Y-3683000D01*
X4089400Y-3733000D01*
X4343400Y-3225000D02*
X4393400Y-3175000D01*
X4343400Y-3125000D01*
X4293400Y-3175000D01*
X4343400Y-3225000D01*
X4343400Y-3479000D02*
X4393400Y-3429000D01*
X4343400Y-3379000D01*
X4293400Y-3429000D01*
X4343400Y-3479000D01*
X4343400Y-3733000D02*
X4393400Y-3683000D01*
X4343400Y-3633000D01*
X4293400Y-3683000D01*
X4343400Y-3733000D01*
X7574600Y-11750000D02*
X7624600Y-11700000D01*
X7574600Y-11650000D01*
X7524600Y-11700000D01*
X7574600Y-11750000D01*
X7824600Y-11750000D02*
X7874600Y-11700000D01*
X7824600Y-11650000D01*
X7774600Y-11700000D01*
X7824600Y-11750000D01*
X8074600Y-11750000D02*
X8124600Y-11700000D01*
X8074600Y-11650000D01*
X8024600Y-11700000D01*
X8074600Y-11750000D01*
X9374600Y-7550000D02*
X9424600Y-7500000D01*
X9374600Y-7450000D01*
X9324600Y-7500000D01*
X9374600Y-7550000D01*
X9624600Y-7550000D02*
X9674600Y-7500000D01*
X9624600Y-7450000D01*
X9574600Y-7500000D01*
X9624600Y-7550000D01*
X9874600Y-7550000D02*
X9924600Y-7500000D01*
X9874600Y-7450000D01*
X9824600Y-7500000D01*
X9874600Y-7550000D01*
X5774600Y-11750000D02*
X5824600Y-11700000D01*
X5774600Y-11650000D01*
X5724600Y-11700000D01*
X5774600Y-11750000D01*
X6024600Y-11750000D02*
X6074600Y-11700000D01*
X6024600Y-11650000D01*
X5974600Y-11700000D01*
X6024600Y-11750000D01*
X6274600Y-11750000D02*
X6324600Y-11700000D01*
X6274600Y-11650000D01*
X6224600Y-11700000D01*
X6274600Y-11750000D01*
X7574600Y-7550000D02*
X7624600Y-7500000D01*
X7574600Y-7450000D01*
X7524600Y-7500000D01*
X7574600Y-7550000D01*
X7824600Y-7550000D02*
X7874600Y-7500000D01*
X7824600Y-7450000D01*
X7774600Y-7500000D01*
X7824600Y-7550000D01*
X8074600Y-7550000D02*
X8124600Y-7500000D01*
X8074600Y-7450000D01*
X8024600Y-7500000D01*
X8074600Y-7550000D01*
X3974600Y-11750000D02*
X4024600Y-11700000D01*
X3974600Y-11650000D01*
X3924600Y-11700000D01*
X3974600Y-11750000D01*
X4224600Y-11750000D02*
X4274600Y-11700000D01*
X4224600Y-11650000D01*
X4174600Y-11700000D01*
X4224600Y-11750000D01*
X4474600Y-11750000D02*
X4524600Y-11700000D01*
X4474600Y-11650000D01*
X4424600Y-11700000D01*
X4474600Y-11750000D01*
X8483600Y-2945600D02*
X8533600Y-2895600D01*
X8483600Y-2845600D01*
X8433600Y-2895600D01*
X8483600Y-2945600D01*
X8737600Y-2945600D02*
X8787600Y-2895600D01*
X8737600Y-2845600D01*
X8687600Y-2895600D01*
X8737600Y-2945600D01*
X9374600Y-11750000D02*
X9424600Y-11700000D01*
X9374600Y-11650000D01*
X9324600Y-11700000D01*
X9374600Y-11750000D01*
X9624600Y-11750000D02*
X9674600Y-11700000D01*
X9624600Y-11650000D01*
X9574600Y-11700000D01*
X9624600Y-11750000D01*
X9874600Y-11750000D02*
X9924600Y-11700000D01*
X9874600Y-11650000D01*
X9824600Y-11700000D01*
X9874600Y-11750000D01*
X3821200Y-4571200D02*
X3871200Y-4521200D01*
X3821200Y-4471200D01*
X3771200Y-4521200D01*
X3821200Y-4571200D01*
X3821200Y-4825200D02*
X3871200Y-4775200D01*
X3821200Y-4725200D01*
X3771200Y-4775200D01*
X3821200Y-4825200D01*
X3821200Y-5079200D02*
X3871200Y-5029200D01*
X3821200Y-4979200D01*
X3771200Y-5029200D01*
X3821200Y-5079200D01*
X3821200Y-5333200D02*
X3871200Y-5283200D01*
X3821200Y-5233200D01*
X3771200Y-5283200D01*
X3821200Y-5333200D01*
X3821200Y-5587200D02*
X3871200Y-5537200D01*
X3821200Y-5487200D01*
X3771200Y-5537200D01*
X3821200Y-5587200D01*
X3821200Y-5841200D02*
X3871200Y-5791200D01*
X3821200Y-5741200D01*
X3771200Y-5791200D01*
X3821200Y-5841200D01*
X3821200Y-6095200D02*
X3871200Y-6045200D01*
X3821200Y-5995200D01*
X3771200Y-6045200D01*
X3821200Y-6095200D01*
X3821200Y-6349200D02*
X3871200Y-6299200D01*
X3821200Y-6249200D01*
X3771200Y-6299200D01*
X3821200Y-6349200D01*
X3821200Y-6603200D02*
X3871200Y-6553200D01*
X3821200Y-6503200D01*
X3771200Y-6553200D01*
X3821200Y-6603200D01*
X3821200Y-6857200D02*
X3871200Y-6807200D01*
X3821200Y-6757200D01*
X3771200Y-6807200D01*
X3821200Y-6857200D01*
X3821200Y-7111200D02*
X3871200Y-7061200D01*
X3821200Y-7011200D01*
X3771200Y-7061200D01*
X3821200Y-7111200D01*
X3821200Y-7365200D02*
X3871200Y-7315200D01*
X3821200Y-7265200D01*
X3771200Y-7315200D01*
X3821200Y-7365200D01*
X3821200Y-7619200D02*
X3871200Y-7569200D01*
X3821200Y-7519200D01*
X3771200Y-7569200D01*
X3821200Y-7619200D01*
X3821200Y-7873200D02*
X3871200Y-7823200D01*
X3821200Y-7773200D01*
X3771200Y-7823200D01*
X3821200Y-7873200D01*
X4583200Y-4571200D02*
X4633200Y-4521200D01*
X4583200Y-4471200D01*
X4533200Y-4521200D01*
X4583200Y-4571200D01*
X4583200Y-4825200D02*
X4633200Y-4775200D01*
X4583200Y-4725200D01*
X4533200Y-4775200D01*
X4583200Y-4825200D01*
X4583200Y-5079200D02*
X4633200Y-5029200D01*
X4583200Y-4979200D01*
X4533200Y-5029200D01*
X4583200Y-5079200D01*
X4583200Y-5333200D02*
X4633200Y-5283200D01*
X4583200Y-5233200D01*
X4533200Y-5283200D01*
X4583200Y-5333200D01*
X4583200Y-5587200D02*
X4633200Y-5537200D01*
X4583200Y-5487200D01*
X4533200Y-5537200D01*
X4583200Y-5587200D01*
X4583200Y-5841200D02*
X4633200Y-5791200D01*
X4583200Y-5741200D01*
X4533200Y-5791200D01*
X4583200Y-5841200D01*
X4583200Y-6095200D02*
X4633200Y-6045200D01*
X4583200Y-5995200D01*
X4533200Y-6045200D01*
X4583200Y-6095200D01*
X4583200Y-6349200D02*
X4633200Y-6299200D01*
X4583200Y-6249200D01*
X4533200Y-6299200D01*
X4583200Y-6349200D01*
X4583200Y-6603200D02*
X4633200Y-6553200D01*
X4583200Y-6503200D01*
X4533200Y-6553200D01*
X4583200Y-6603200D01*
X4583200Y-6857200D02*
X4633200Y-6807200D01*
X4583200Y-6757200D01*
X4533200Y-6807200D01*
X4583200Y-6857200D01*
X4583200Y-7111200D02*
X4633200Y-7061200D01*
X4583200Y-7011200D01*
X4533200Y-7061200D01*
X4583200Y-7111200D01*
X4583200Y-7365200D02*
X4633200Y-7315200D01*
X4583200Y-7265200D01*
X4533200Y-7315200D01*
X4583200Y-7365200D01*
X4583200Y-7619200D02*
X4633200Y-7569200D01*
X4583200Y-7519200D01*
X4533200Y-7569200D01*
X4583200Y-7619200D01*
X4583200Y-7873200D02*
X4633200Y-7823200D01*
X4583200Y-7773200D01*
X4533200Y-7823200D01*
X4583200Y-7873200D01*
X9343000Y-4745600D02*
X9453000Y-4855600D01*
X9453000Y-4745600D02*
X9343000Y-4855600D01*
X9453000Y-4800600D02*
G75*
G03*
X9453000Y-4800600I-55000J0D01*
G01*
X9597000Y-4745600D02*
X9707000Y-4855600D01*
X9707000Y-4745600D02*
X9597000Y-4855600D01*
X9707000Y-4800600D02*
G75*
G03*
X9707000Y-4800600I-55000J0D01*
G01*
X9851000Y-4745600D02*
X9961000Y-4855600D01*
X9961000Y-4745600D02*
X9851000Y-4855600D01*
X9961000Y-4800600D02*
G75*
G03*
X9961000Y-4800600I-55000J0D01*
G01*
X3916400Y-9100000D02*
X4066400Y-9250000D01*
X4066400Y-9100000D02*
X3916400Y-9250000D01*
X3991400Y-9100000D02*
X3991400Y-9250000D01*
X3916400Y-9175000D02*
X4066400Y-9175000D01*
X3916400Y-9750000D02*
X4066400Y-9900000D01*
X4066400Y-9750000D02*
X3916400Y-9900000D01*
X3991400Y-9750000D02*
X3991400Y-9900000D01*
X3916400Y-9825000D02*
X4066400Y-9825000D01*
X4366400Y-9100000D02*
X4516400Y-9250000D01*
X4516400Y-9100000D02*
X4366400Y-9250000D01*
X4441400Y-9100000D02*
X4441400Y-9250000D01*
X4366400Y-9175000D02*
X4516400Y-9175000D01*
X4366400Y-9750000D02*
X4516400Y-9900000D01*
X4516400Y-9750000D02*
X4366400Y-9900000D01*
X4441400Y-9750000D02*
X4441400Y-9900000D01*
X4366400Y-9825000D02*
X4516400Y-9825000D01*
X9326600Y-9100000D02*
X9476600Y-9250000D01*
X9476600Y-9100000D02*
X9326600Y-9250000D01*
X9401600Y-9100000D02*
X9401600Y-9250000D01*
X9326600Y-9175000D02*
X9476600Y-9175000D01*
X9326600Y-9750000D02*
X9476600Y-9900000D01*
X9476600Y-9750000D02*
X9326600Y-9900000D01*
X9401600Y-9750000D02*
X9401600Y-9900000D01*
X9326600Y-9825000D02*
X9476600Y-9825000D01*
X9776600Y-9100000D02*
X9926600Y-9250000D01*
X9926600Y-9100000D02*
X9776600Y-9250000D01*
X9851600Y-9100000D02*
X9851600Y-9250000D01*
X9776600Y-9175000D02*
X9926600Y-9175000D01*
X9776600Y-9750000D02*
X9926600Y-9900000D01*
X9926600Y-9750000D02*
X9776600Y-9900000D01*
X9851600Y-9750000D02*
X9851600Y-9900000D01*
X9776600Y-9825000D02*
X9926600Y-9825000D01*
X6017000Y-3938200D02*
X6167000Y-4088200D01*
X6167000Y-3938200D02*
X6017000Y-4088200D01*
X6092000Y-3938200D02*
X6092000Y-4088200D01*
X6017000Y-4013200D02*
X6167000Y-4013200D01*
X7517000Y-3938200D02*
X7667000Y-4088200D01*
X7667000Y-3938200D02*
X7517000Y-4088200D01*
X7592000Y-3938200D02*
X7592000Y-4088200D01*
X7517000Y-4013200D02*
X7667000Y-4013200D01*
X7523200Y-9100000D02*
X7673200Y-9250000D01*
X7673200Y-9100000D02*
X7523200Y-9250000D01*
X7598200Y-9100000D02*
X7598200Y-9250000D01*
X7523200Y-9175000D02*
X7673200Y-9175000D01*
X7523200Y-9750000D02*
X7673200Y-9900000D01*
X7673200Y-9750000D02*
X7523200Y-9900000D01*
X7598200Y-9750000D02*
X7598200Y-9900000D01*
X7523200Y-9825000D02*
X7673200Y-9825000D01*
X7973200Y-9100000D02*
X8123200Y-9250000D01*
X8123200Y-9100000D02*
X7973200Y-9250000D01*
X8048200Y-9100000D02*
X8048200Y-9250000D01*
X7973200Y-9175000D02*
X8123200Y-9175000D01*
X7973200Y-9750000D02*
X8123200Y-9900000D01*
X8123200Y-9750000D02*
X7973200Y-9900000D01*
X8048200Y-9750000D02*
X8048200Y-9900000D01*
X7973200Y-9825000D02*
X8123200Y-9825000D01*
X5719800Y-9100000D02*
X5869800Y-9250000D01*
X5869800Y-9100000D02*
X5719800Y-9250000D01*
X5794800Y-9100000D02*
X5794800Y-9250000D01*
X5719800Y-9175000D02*
X5869800Y-9175000D01*
X5719800Y-9750000D02*
X5869800Y-9900000D01*
X5869800Y-9750000D02*
X5719800Y-9900000D01*
X5794800Y-9750000D02*
X5794800Y-9900000D01*
X5719800Y-9825000D02*
X5869800Y-9825000D01*
X6169800Y-9100000D02*
X6319800Y-9250000D01*
X6319800Y-9100000D02*
X6169800Y-9250000D01*
X6244800Y-9100000D02*
X6244800Y-9250000D01*
X6169800Y-9175000D02*
X6319800Y-9175000D01*
X6169800Y-9750000D02*
X6319800Y-9900000D01*
X6319800Y-9750000D02*
X6169800Y-9900000D01*
X6244800Y-9750000D02*
X6244800Y-9900000D01*
X6169800Y-9825000D02*
X6319800Y-9825000D01*
X6202400Y-6432600D02*
X6352400Y-6582600D01*
X6352400Y-6432600D02*
X6202400Y-6582600D01*
X6277400Y-6432600D02*
X6277400Y-6582600D01*
X6202400Y-6507600D02*
X6352400Y-6507600D01*
X6202400Y-7082600D02*
X6352400Y-7232600D01*
X6352400Y-7082600D02*
X6202400Y-7232600D01*
X6277400Y-7082600D02*
X6277400Y-7232600D01*
X6202400Y-7157600D02*
X6352400Y-7157600D01*
X6652400Y-6432600D02*
X6802400Y-6582600D01*
X6802400Y-6432600D02*
X6652400Y-6582600D01*
X6727400Y-6432600D02*
X6727400Y-6582600D01*
X6652400Y-6507600D02*
X6802400Y-6507600D01*
X6652400Y-7082600D02*
X6802400Y-7232600D01*
X6802400Y-7082600D02*
X6652400Y-7232600D01*
X6727400Y-7082600D02*
X6727400Y-7232600D01*
X6652400Y-7157600D02*
X6802400Y-7157600D01*
X9452000Y-2934600D02*
X9852000Y-3334600D01*
X9852000Y-2934600D02*
X9452000Y-3334600D01*
X9793423Y-3276023D02*
X9793423Y-2993177D01*
X9510577Y-2993177D01*
X9510577Y-3276023D01*
X9793423Y-3276023D01*
D12*
X2978928Y-12873214D02*
X2978928Y-12573214D01*
X3050357Y-12573214D01*
X3093214Y-12587500D01*
X3121786Y-12616071D01*
X3136071Y-12644643D01*
X3150357Y-12701786D01*
X3150357Y-12744643D01*
X3136071Y-12801786D01*
X3121786Y-12830357D01*
X3093214Y-12858929D01*
X3050357Y-12873214D01*
X2978928Y-12873214D01*
X3278928Y-12873214D02*
X3278928Y-12673214D01*
X3278928Y-12730357D02*
X3293214Y-12701786D01*
X3307500Y-12687500D01*
X3336071Y-12673214D01*
X3364643Y-12673214D01*
X3464643Y-12873214D02*
X3464643Y-12673214D01*
X3464643Y-12573214D02*
X3450357Y-12587500D01*
X3464643Y-12601786D01*
X3478928Y-12587500D01*
X3464643Y-12573214D01*
X3464643Y-12601786D01*
X3650357Y-12873214D02*
X3621786Y-12858929D01*
X3607500Y-12830357D01*
X3607500Y-12573214D01*
X3807500Y-12873214D02*
X3778928Y-12858929D01*
X3764643Y-12830357D01*
X3764643Y-12573214D01*
X4150357Y-12873214D02*
X4150357Y-12573214D01*
X4250357Y-12787500D01*
X4350357Y-12573214D01*
X4350357Y-12873214D01*
X4621786Y-12873214D02*
X4621786Y-12716071D01*
X4607500Y-12687500D01*
X4578928Y-12673214D01*
X4521786Y-12673214D01*
X4493214Y-12687500D01*
X4621786Y-12858929D02*
X4593214Y-12873214D01*
X4521786Y-12873214D01*
X4493214Y-12858929D01*
X4478928Y-12830357D01*
X4478928Y-12801786D01*
X4493214Y-12773214D01*
X4521786Y-12758929D01*
X4593214Y-12758929D01*
X4621786Y-12744643D01*
X4764643Y-12673214D02*
X4764643Y-12973214D01*
X4764643Y-12687500D02*
X4793214Y-12673214D01*
X4850357Y-12673214D01*
X4878928Y-12687500D01*
X4893214Y-12701786D01*
X4907500Y-12730357D01*
X4907500Y-12816071D01*
X4893214Y-12844643D01*
X4878928Y-12858929D01*
X4850357Y-12873214D01*
X4793214Y-12873214D01*
X4764643Y-12858929D01*
X5036071Y-12844643D02*
X5050357Y-12858929D01*
X5036071Y-12873214D01*
X5021786Y-12858929D01*
X5036071Y-12844643D01*
X5036071Y-12873214D01*
X5036071Y-12687500D02*
X5050357Y-12701786D01*
X5036071Y-12716071D01*
X5021786Y-12701786D01*
X5036071Y-12687500D01*
X5036071Y-12716071D01*
X2652500Y-13347500D02*
X2692500Y-13387500D01*
X2692500Y-13347500D02*
X2652500Y-13387500D01*
X3036071Y-13203214D02*
X3064643Y-13203214D01*
X3093214Y-13217500D01*
X3107500Y-13231786D01*
X3121786Y-13260357D01*
X3136071Y-13317500D01*
X3136071Y-13388929D01*
X3121786Y-13446071D01*
X3107500Y-13474643D01*
X3093214Y-13488929D01*
X3064643Y-13503214D01*
X3036071Y-13503214D01*
X3007500Y-13488929D01*
X2993214Y-13474643D01*
X2978928Y-13446071D01*
X2964643Y-13388929D01*
X2964643Y-13317500D01*
X2978928Y-13260357D01*
X2993214Y-13231786D01*
X3007500Y-13217500D01*
X3036071Y-13203214D01*
X3264643Y-13474643D02*
X3278928Y-13488929D01*
X3264643Y-13503214D01*
X3250357Y-13488929D01*
X3264643Y-13474643D01*
X3264643Y-13503214D01*
X3536071Y-13303214D02*
X3536071Y-13503214D01*
X3464643Y-13188929D02*
X3393214Y-13403214D01*
X3578928Y-13403214D01*
X3750357Y-13203214D02*
X3778928Y-13203214D01*
X3807500Y-13217500D01*
X3821786Y-13231786D01*
X3836071Y-13260357D01*
X3850357Y-13317500D01*
X3850357Y-13388929D01*
X3836071Y-13446071D01*
X3821786Y-13474643D01*
X3807500Y-13488929D01*
X3778928Y-13503214D01*
X3750357Y-13503214D01*
X3721786Y-13488929D01*
X3707500Y-13474643D01*
X3693214Y-13446071D01*
X3678928Y-13388929D01*
X3678928Y-13317500D01*
X3693214Y-13260357D01*
X3707500Y-13231786D01*
X3721786Y-13217500D01*
X3750357Y-13203214D01*
X3978928Y-13503214D02*
X3978928Y-13303214D01*
X3978928Y-13331786D02*
X3993214Y-13317500D01*
X4021786Y-13303214D01*
X4064643Y-13303214D01*
X4093214Y-13317500D01*
X4107500Y-13346071D01*
X4107500Y-13503214D01*
X4107500Y-13346071D02*
X4121786Y-13317500D01*
X4150357Y-13303214D01*
X4193214Y-13303214D01*
X4221786Y-13317500D01*
X4236071Y-13346071D01*
X4236071Y-13503214D01*
X4378928Y-13503214D02*
X4378928Y-13303214D01*
X4378928Y-13331786D02*
X4393214Y-13317500D01*
X4421786Y-13303214D01*
X4464643Y-13303214D01*
X4493214Y-13317500D01*
X4507500Y-13346071D01*
X4507500Y-13503214D01*
X4507500Y-13346071D02*
X4521786Y-13317500D01*
X4550357Y-13303214D01*
X4593214Y-13303214D01*
X4621786Y-13317500D01*
X4636071Y-13346071D01*
X4636071Y-13503214D01*
X5221786Y-13188929D02*
X4964643Y-13574643D01*
X5607500Y-13203214D02*
X5636071Y-13203214D01*
X5664643Y-13217500D01*
X5678928Y-13231786D01*
X5693214Y-13260357D01*
X5707500Y-13317500D01*
X5707500Y-13388929D01*
X5693214Y-13446071D01*
X5678928Y-13474643D01*
X5664643Y-13488929D01*
X5636071Y-13503214D01*
X5607500Y-13503214D01*
X5578928Y-13488929D01*
X5564643Y-13474643D01*
X5550357Y-13446071D01*
X5536071Y-13388929D01*
X5536071Y-13317500D01*
X5550357Y-13260357D01*
X5564643Y-13231786D01*
X5578928Y-13217500D01*
X5607500Y-13203214D01*
X5836071Y-13474643D02*
X5850357Y-13488929D01*
X5836071Y-13503214D01*
X5821786Y-13488929D01*
X5836071Y-13474643D01*
X5836071Y-13503214D01*
X6036071Y-13203214D02*
X6064643Y-13203214D01*
X6093214Y-13217500D01*
X6107500Y-13231786D01*
X6121786Y-13260357D01*
X6136071Y-13317500D01*
X6136071Y-13388929D01*
X6121786Y-13446071D01*
X6107500Y-13474643D01*
X6093214Y-13488929D01*
X6064643Y-13503214D01*
X6036071Y-13503214D01*
X6007500Y-13488929D01*
X5993214Y-13474643D01*
X5978928Y-13446071D01*
X5964643Y-13388929D01*
X5964643Y-13317500D01*
X5978928Y-13260357D01*
X5993214Y-13231786D01*
X6007500Y-13217500D01*
X6036071Y-13203214D01*
X6421786Y-13503214D02*
X6250357Y-13503214D01*
X6336071Y-13503214D02*
X6336071Y-13203214D01*
X6307500Y-13246071D01*
X6278928Y-13274643D01*
X6250357Y-13288929D01*
X6678928Y-13203214D02*
X6621786Y-13203214D01*
X6593214Y-13217500D01*
X6578928Y-13231786D01*
X6550357Y-13274643D01*
X6536071Y-13331786D01*
X6536071Y-13446071D01*
X6550357Y-13474643D01*
X6564643Y-13488929D01*
X6593214Y-13503214D01*
X6650357Y-13503214D01*
X6678928Y-13488929D01*
X6693214Y-13474643D01*
X6707500Y-13446071D01*
X6707500Y-13374643D01*
X6693214Y-13346071D01*
X6678928Y-13331786D01*
X6650357Y-13317500D01*
X6593214Y-13317500D01*
X6564643Y-13331786D01*
X6550357Y-13346071D01*
X6536071Y-13374643D01*
X6821786Y-13203214D02*
X6821786Y-13260357D01*
X6936071Y-13203214D02*
X6936071Y-13260357D01*
X7378928Y-13617500D02*
X7364643Y-13603214D01*
X7336071Y-13560357D01*
X7321786Y-13531786D01*
X7307500Y-13488929D01*
X7293214Y-13417500D01*
X7293214Y-13360357D01*
X7307500Y-13288929D01*
X7321786Y-13246071D01*
X7336071Y-13217500D01*
X7364643Y-13174643D01*
X7378928Y-13160357D01*
X7478928Y-13231786D02*
X7493214Y-13217500D01*
X7521786Y-13203214D01*
X7593214Y-13203214D01*
X7621786Y-13217500D01*
X7636071Y-13231786D01*
X7650357Y-13260357D01*
X7650357Y-13288929D01*
X7636071Y-13331786D01*
X7464643Y-13503214D01*
X7650357Y-13503214D01*
X7907500Y-13203214D02*
X7850357Y-13203214D01*
X7821786Y-13217500D01*
X7807500Y-13231786D01*
X7778928Y-13274643D01*
X7764643Y-13331786D01*
X7764643Y-13446071D01*
X7778928Y-13474643D01*
X7793214Y-13488929D01*
X7821786Y-13503214D01*
X7878928Y-13503214D01*
X7907500Y-13488929D01*
X7921786Y-13474643D01*
X7936071Y-13446071D01*
X7936071Y-13374643D01*
X7921786Y-13346071D01*
X7907500Y-13331786D01*
X7878928Y-13317500D01*
X7821786Y-13317500D01*
X7793214Y-13331786D01*
X7778928Y-13346071D01*
X7764643Y-13374643D01*
X8293214Y-13503214D02*
X8293214Y-13203214D01*
X8421786Y-13503214D02*
X8421786Y-13346071D01*
X8407500Y-13317500D01*
X8378928Y-13303214D01*
X8336071Y-13303214D01*
X8307500Y-13317500D01*
X8293214Y-13331786D01*
X8607500Y-13503214D02*
X8578928Y-13488929D01*
X8564643Y-13474643D01*
X8550357Y-13446071D01*
X8550357Y-13360357D01*
X8564643Y-13331786D01*
X8578928Y-13317500D01*
X8607500Y-13303214D01*
X8650357Y-13303214D01*
X8678928Y-13317500D01*
X8693214Y-13331786D01*
X8707500Y-13360357D01*
X8707500Y-13446071D01*
X8693214Y-13474643D01*
X8678928Y-13488929D01*
X8650357Y-13503214D01*
X8607500Y-13503214D01*
X8878928Y-13503214D02*
X8850357Y-13488929D01*
X8836071Y-13460357D01*
X8836071Y-13203214D01*
X9107500Y-13488929D02*
X9078928Y-13503214D01*
X9021786Y-13503214D01*
X8993214Y-13488929D01*
X8978928Y-13460357D01*
X8978928Y-13346071D01*
X8993214Y-13317500D01*
X9021786Y-13303214D01*
X9078928Y-13303214D01*
X9107500Y-13317500D01*
X9121786Y-13346071D01*
X9121786Y-13374643D01*
X8978928Y-13403214D01*
X9236071Y-13488929D02*
X9264643Y-13503214D01*
X9321786Y-13503214D01*
X9350357Y-13488929D01*
X9364643Y-13460357D01*
X9364643Y-13446071D01*
X9350357Y-13417500D01*
X9321786Y-13403214D01*
X9278928Y-13403214D01*
X9250357Y-13388929D01*
X9236071Y-13360357D01*
X9236071Y-13346071D01*
X9250357Y-13317500D01*
X9278928Y-13303214D01*
X9321786Y-13303214D01*
X9350357Y-13317500D01*
X9464643Y-13617500D02*
X9478928Y-13603214D01*
X9507500Y-13560357D01*
X9521786Y-13531786D01*
X9536071Y-13488929D01*
X9550357Y-13417500D01*
X9550357Y-13360357D01*
X9536071Y-13288929D01*
X9521786Y-13246071D01*
X9507500Y-13217500D01*
X9478928Y-13174643D01*
X9464643Y-13160357D01*
X2692500Y-13763500D02*
G75*
G03*
X2692500Y-13763500I-38100J0D01*
G01*
X3036071Y-13599214D02*
X3064643Y-13599214D01*
X3093214Y-13613500D01*
X3107500Y-13627786D01*
X3121786Y-13656357D01*
X3136071Y-13713500D01*
X3136071Y-13784929D01*
X3121786Y-13842071D01*
X3107500Y-13870643D01*
X3093214Y-13884929D01*
X3064643Y-13899214D01*
X3036071Y-13899214D01*
X3007500Y-13884929D01*
X2993214Y-13870643D01*
X2978928Y-13842071D01*
X2964643Y-13784929D01*
X2964643Y-13713500D01*
X2978928Y-13656357D01*
X2993214Y-13627786D01*
X3007500Y-13613500D01*
X3036071Y-13599214D01*
X3264643Y-13870643D02*
X3278928Y-13884929D01*
X3264643Y-13899214D01*
X3250357Y-13884929D01*
X3264643Y-13870643D01*
X3264643Y-13899214D01*
X3378928Y-13599214D02*
X3578928Y-13599214D01*
X3450357Y-13899214D01*
X3821786Y-13599214D02*
X3764643Y-13599214D01*
X3736071Y-13613500D01*
X3721786Y-13627786D01*
X3693214Y-13670643D01*
X3678928Y-13727786D01*
X3678928Y-13842071D01*
X3693214Y-13870643D01*
X3707500Y-13884929D01*
X3736071Y-13899214D01*
X3793214Y-13899214D01*
X3821786Y-13884929D01*
X3836071Y-13870643D01*
X3850357Y-13842071D01*
X3850357Y-13770643D01*
X3836071Y-13742071D01*
X3821786Y-13727786D01*
X3793214Y-13713500D01*
X3736071Y-13713500D01*
X3707500Y-13727786D01*
X3693214Y-13742071D01*
X3678928Y-13770643D01*
X3978928Y-13899214D02*
X3978928Y-13699214D01*
X3978928Y-13727786D02*
X3993214Y-13713500D01*
X4021786Y-13699214D01*
X4064643Y-13699214D01*
X4093214Y-13713500D01*
X4107500Y-13742071D01*
X4107500Y-13899214D01*
X4107500Y-13742071D02*
X4121786Y-13713500D01*
X4150357Y-13699214D01*
X4193214Y-13699214D01*
X4221786Y-13713500D01*
X4236071Y-13742071D01*
X4236071Y-13899214D01*
X4378928Y-13899214D02*
X4378928Y-13699214D01*
X4378928Y-13727786D02*
X4393214Y-13713500D01*
X4421786Y-13699214D01*
X4464643Y-13699214D01*
X4493214Y-13713500D01*
X4507500Y-13742071D01*
X4507500Y-13899214D01*
X4507500Y-13742071D02*
X4521786Y-13713500D01*
X4550357Y-13699214D01*
X4593214Y-13699214D01*
X4621786Y-13713500D01*
X4636071Y-13742071D01*
X4636071Y-13899214D01*
X5221786Y-13584929D02*
X4964643Y-13970643D01*
X5607500Y-13599214D02*
X5636071Y-13599214D01*
X5664643Y-13613500D01*
X5678928Y-13627786D01*
X5693214Y-13656357D01*
X5707500Y-13713500D01*
X5707500Y-13784929D01*
X5693214Y-13842071D01*
X5678928Y-13870643D01*
X5664643Y-13884929D01*
X5636071Y-13899214D01*
X5607500Y-13899214D01*
X5578928Y-13884929D01*
X5564643Y-13870643D01*
X5550357Y-13842071D01*
X5536071Y-13784929D01*
X5536071Y-13713500D01*
X5550357Y-13656357D01*
X5564643Y-13627786D01*
X5578928Y-13613500D01*
X5607500Y-13599214D01*
X5836071Y-13870643D02*
X5850357Y-13884929D01*
X5836071Y-13899214D01*
X5821786Y-13884929D01*
X5836071Y-13870643D01*
X5836071Y-13899214D01*
X6036071Y-13599214D02*
X6064643Y-13599214D01*
X6093214Y-13613500D01*
X6107500Y-13627786D01*
X6121786Y-13656357D01*
X6136071Y-13713500D01*
X6136071Y-13784929D01*
X6121786Y-13842071D01*
X6107500Y-13870643D01*
X6093214Y-13884929D01*
X6064643Y-13899214D01*
X6036071Y-13899214D01*
X6007500Y-13884929D01*
X5993214Y-13870643D01*
X5978928Y-13842071D01*
X5964643Y-13784929D01*
X5964643Y-13713500D01*
X5978928Y-13656357D01*
X5993214Y-13627786D01*
X6007500Y-13613500D01*
X6036071Y-13599214D01*
X6236071Y-13599214D02*
X6421786Y-13599214D01*
X6321786Y-13713500D01*
X6364643Y-13713500D01*
X6393214Y-13727786D01*
X6407500Y-13742071D01*
X6421786Y-13770643D01*
X6421786Y-13842071D01*
X6407500Y-13870643D01*
X6393214Y-13884929D01*
X6364643Y-13899214D01*
X6278928Y-13899214D01*
X6250357Y-13884929D01*
X6236071Y-13870643D01*
X6607500Y-13599214D02*
X6636071Y-13599214D01*
X6664643Y-13613500D01*
X6678928Y-13627786D01*
X6693214Y-13656357D01*
X6707500Y-13713500D01*
X6707500Y-13784929D01*
X6693214Y-13842071D01*
X6678928Y-13870643D01*
X6664643Y-13884929D01*
X6636071Y-13899214D01*
X6607500Y-13899214D01*
X6578928Y-13884929D01*
X6564643Y-13870643D01*
X6550357Y-13842071D01*
X6536071Y-13784929D01*
X6536071Y-13713500D01*
X6550357Y-13656357D01*
X6564643Y-13627786D01*
X6578928Y-13613500D01*
X6607500Y-13599214D01*
X6821786Y-13599214D02*
X6821786Y-13656357D01*
X6936071Y-13599214D02*
X6936071Y-13656357D01*
X7378928Y-14013500D02*
X7364643Y-13999214D01*
X7336071Y-13956357D01*
X7321786Y-13927786D01*
X7307500Y-13884929D01*
X7293214Y-13813500D01*
X7293214Y-13756357D01*
X7307500Y-13684929D01*
X7321786Y-13642071D01*
X7336071Y-13613500D01*
X7364643Y-13570643D01*
X7378928Y-13556357D01*
X7478928Y-13627786D02*
X7493214Y-13613500D01*
X7521786Y-13599214D01*
X7593214Y-13599214D01*
X7621786Y-13613500D01*
X7636071Y-13627786D01*
X7650357Y-13656357D01*
X7650357Y-13684929D01*
X7636071Y-13727786D01*
X7464643Y-13899214D01*
X7650357Y-13899214D01*
X8007500Y-13899214D02*
X8007500Y-13599214D01*
X8136071Y-13899214D02*
X8136071Y-13742071D01*
X8121786Y-13713500D01*
X8093214Y-13699214D01*
X8050357Y-13699214D01*
X8021786Y-13713500D01*
X8007500Y-13727786D01*
X8321786Y-13899214D02*
X8293214Y-13884929D01*
X8278928Y-13870643D01*
X8264643Y-13842071D01*
X8264643Y-13756357D01*
X8278928Y-13727786D01*
X8293214Y-13713500D01*
X8321786Y-13699214D01*
X8364643Y-13699214D01*
X8393214Y-13713500D01*
X8407500Y-13727786D01*
X8421786Y-13756357D01*
X8421786Y-13842071D01*
X8407500Y-13870643D01*
X8393214Y-13884929D01*
X8364643Y-13899214D01*
X8321786Y-13899214D01*
X8593214Y-13899214D02*
X8564643Y-13884929D01*
X8550357Y-13856357D01*
X8550357Y-13599214D01*
X8821786Y-13884929D02*
X8793214Y-13899214D01*
X8736071Y-13899214D01*
X8707500Y-13884929D01*
X8693214Y-13856357D01*
X8693214Y-13742071D01*
X8707500Y-13713500D01*
X8736071Y-13699214D01*
X8793214Y-13699214D01*
X8821786Y-13713500D01*
X8836071Y-13742071D01*
X8836071Y-13770643D01*
X8693214Y-13799214D01*
X8950357Y-13884929D02*
X8978928Y-13899214D01*
X9036071Y-13899214D01*
X9064643Y-13884929D01*
X9078928Y-13856357D01*
X9078928Y-13842071D01*
X9064643Y-13813500D01*
X9036071Y-13799214D01*
X8993214Y-13799214D01*
X8964643Y-13784929D01*
X8950357Y-13756357D01*
X8950357Y-13742071D01*
X8964643Y-13713500D01*
X8993214Y-13699214D01*
X9036071Y-13699214D01*
X9064643Y-13713500D01*
X9178928Y-14013500D02*
X9193214Y-13999214D01*
X9221786Y-13956357D01*
X9236071Y-13927786D01*
X9250357Y-13884929D01*
X9264643Y-13813500D01*
X9264643Y-13756357D01*
X9250357Y-13684929D01*
X9236071Y-13642071D01*
X9221786Y-13613500D01*
X9193214Y-13570643D01*
X9178928Y-13556357D01*
X2652500Y-14119500D02*
X2652500Y-14199500D01*
X2612500Y-14159500D02*
X2692500Y-14159500D01*
X3036071Y-13995214D02*
X3064643Y-13995214D01*
X3093214Y-14009500D01*
X3107500Y-14023786D01*
X3121786Y-14052357D01*
X3136071Y-14109500D01*
X3136071Y-14180929D01*
X3121786Y-14238071D01*
X3107500Y-14266643D01*
X3093214Y-14280929D01*
X3064643Y-14295214D01*
X3036071Y-14295214D01*
X3007500Y-14280929D01*
X2993214Y-14266643D01*
X2978928Y-14238071D01*
X2964643Y-14180929D01*
X2964643Y-14109500D01*
X2978928Y-14052357D01*
X2993214Y-14023786D01*
X3007500Y-14009500D01*
X3036071Y-13995214D01*
X3264643Y-14266643D02*
X3278928Y-14280929D01*
X3264643Y-14295214D01*
X3250357Y-14280929D01*
X3264643Y-14266643D01*
X3264643Y-14295214D01*
X3450357Y-14123786D02*
X3421786Y-14109500D01*
X3407500Y-14095214D01*
X3393214Y-14066643D01*
X3393214Y-14052357D01*
X3407500Y-14023786D01*
X3421786Y-14009500D01*
X3450357Y-13995214D01*
X3507500Y-13995214D01*
X3536071Y-14009500D01*
X3550357Y-14023786D01*
X3564643Y-14052357D01*
X3564643Y-14066643D01*
X3550357Y-14095214D01*
X3536071Y-14109500D01*
X3507500Y-14123786D01*
X3450357Y-14123786D01*
X3421786Y-14138071D01*
X3407500Y-14152357D01*
X3393214Y-14180929D01*
X3393214Y-14238071D01*
X3407500Y-14266643D01*
X3421786Y-14280929D01*
X3450357Y-14295214D01*
X3507500Y-14295214D01*
X3536071Y-14280929D01*
X3550357Y-14266643D01*
X3564643Y-14238071D01*
X3564643Y-14180929D01*
X3550357Y-14152357D01*
X3536071Y-14138071D01*
X3507500Y-14123786D01*
X3750357Y-13995214D02*
X3778928Y-13995214D01*
X3807500Y-14009500D01*
X3821786Y-14023786D01*
X3836071Y-14052357D01*
X3850357Y-14109500D01*
X3850357Y-14180929D01*
X3836071Y-14238071D01*
X3821786Y-14266643D01*
X3807500Y-14280929D01*
X3778928Y-14295214D01*
X3750357Y-14295214D01*
X3721786Y-14280929D01*
X3707500Y-14266643D01*
X3693214Y-14238071D01*
X3678928Y-14180929D01*
X3678928Y-14109500D01*
X3693214Y-14052357D01*
X3707500Y-14023786D01*
X3721786Y-14009500D01*
X3750357Y-13995214D01*
X3978928Y-14295214D02*
X3978928Y-14095214D01*
X3978928Y-14123786D02*
X3993214Y-14109500D01*
X4021786Y-14095214D01*
X4064643Y-14095214D01*
X4093214Y-14109500D01*
X4107500Y-14138071D01*
X4107500Y-14295214D01*
X4107500Y-14138071D02*
X4121786Y-14109500D01*
X4150357Y-14095214D01*
X4193214Y-14095214D01*
X4221786Y-14109500D01*
X4236071Y-14138071D01*
X4236071Y-14295214D01*
X4378928Y-14295214D02*
X4378928Y-14095214D01*
X4378928Y-14123786D02*
X4393214Y-14109500D01*
X4421786Y-14095214D01*
X4464643Y-14095214D01*
X4493214Y-14109500D01*
X4507500Y-14138071D01*
X4507500Y-14295214D01*
X4507500Y-14138071D02*
X4521786Y-14109500D01*
X4550357Y-14095214D01*
X4593214Y-14095214D01*
X4621786Y-14109500D01*
X4636071Y-14138071D01*
X4636071Y-14295214D01*
X5221786Y-13980929D02*
X4964643Y-14366643D01*
X5607500Y-13995214D02*
X5636071Y-13995214D01*
X5664643Y-14009500D01*
X5678928Y-14023786D01*
X5693214Y-14052357D01*
X5707500Y-14109500D01*
X5707500Y-14180929D01*
X5693214Y-14238071D01*
X5678928Y-14266643D01*
X5664643Y-14280929D01*
X5636071Y-14295214D01*
X5607500Y-14295214D01*
X5578928Y-14280929D01*
X5564643Y-14266643D01*
X5550357Y-14238071D01*
X5536071Y-14180929D01*
X5536071Y-14109500D01*
X5550357Y-14052357D01*
X5564643Y-14023786D01*
X5578928Y-14009500D01*
X5607500Y-13995214D01*
X5836071Y-14266643D02*
X5850357Y-14280929D01*
X5836071Y-14295214D01*
X5821786Y-14280929D01*
X5836071Y-14266643D01*
X5836071Y-14295214D01*
X6036071Y-13995214D02*
X6064643Y-13995214D01*
X6093214Y-14009500D01*
X6107500Y-14023786D01*
X6121786Y-14052357D01*
X6136071Y-14109500D01*
X6136071Y-14180929D01*
X6121786Y-14238071D01*
X6107500Y-14266643D01*
X6093214Y-14280929D01*
X6064643Y-14295214D01*
X6036071Y-14295214D01*
X6007500Y-14280929D01*
X5993214Y-14266643D01*
X5978928Y-14238071D01*
X5964643Y-14180929D01*
X5964643Y-14109500D01*
X5978928Y-14052357D01*
X5993214Y-14023786D01*
X6007500Y-14009500D01*
X6036071Y-13995214D01*
X6236071Y-13995214D02*
X6421786Y-13995214D01*
X6321786Y-14109500D01*
X6364643Y-14109500D01*
X6393214Y-14123786D01*
X6407500Y-14138071D01*
X6421786Y-14166643D01*
X6421786Y-14238071D01*
X6407500Y-14266643D01*
X6393214Y-14280929D01*
X6364643Y-14295214D01*
X6278928Y-14295214D01*
X6250357Y-14280929D01*
X6236071Y-14266643D01*
X6707500Y-14295214D02*
X6536071Y-14295214D01*
X6621786Y-14295214D02*
X6621786Y-13995214D01*
X6593214Y-14038071D01*
X6564643Y-14066643D01*
X6536071Y-14080929D01*
X6821786Y-13995214D02*
X6821786Y-14052357D01*
X6936071Y-13995214D02*
X6936071Y-14052357D01*
X7378928Y-14409500D02*
X7364643Y-14395214D01*
X7336071Y-14352357D01*
X7321786Y-14323786D01*
X7307500Y-14280929D01*
X7293214Y-14209500D01*
X7293214Y-14152357D01*
X7307500Y-14080929D01*
X7321786Y-14038071D01*
X7336071Y-14009500D01*
X7364643Y-13966643D01*
X7378928Y-13952357D01*
X7464643Y-13995214D02*
X7650357Y-13995214D01*
X7550357Y-14109500D01*
X7593214Y-14109500D01*
X7621786Y-14123786D01*
X7636071Y-14138071D01*
X7650357Y-14166643D01*
X7650357Y-14238071D01*
X7636071Y-14266643D01*
X7621786Y-14280929D01*
X7593214Y-14295214D01*
X7507500Y-14295214D01*
X7478928Y-14280929D01*
X7464643Y-14266643D01*
X7907500Y-14095214D02*
X7907500Y-14295214D01*
X7836071Y-13980929D02*
X7764643Y-14195214D01*
X7950357Y-14195214D01*
X8293214Y-14295214D02*
X8293214Y-13995214D01*
X8421786Y-14295214D02*
X8421786Y-14138071D01*
X8407500Y-14109500D01*
X8378928Y-14095214D01*
X8336071Y-14095214D01*
X8307500Y-14109500D01*
X8293214Y-14123786D01*
X8607500Y-14295214D02*
X8578928Y-14280929D01*
X8564643Y-14266643D01*
X8550357Y-14238071D01*
X8550357Y-14152357D01*
X8564643Y-14123786D01*
X8578928Y-14109500D01*
X8607500Y-14095214D01*
X8650357Y-14095214D01*
X8678928Y-14109500D01*
X8693214Y-14123786D01*
X8707500Y-14152357D01*
X8707500Y-14238071D01*
X8693214Y-14266643D01*
X8678928Y-14280929D01*
X8650357Y-14295214D01*
X8607500Y-14295214D01*
X8878928Y-14295214D02*
X8850357Y-14280929D01*
X8836071Y-14252357D01*
X8836071Y-13995214D01*
X9107500Y-14280929D02*
X9078928Y-14295214D01*
X9021786Y-14295214D01*
X8993214Y-14280929D01*
X8978928Y-14252357D01*
X8978928Y-14138071D01*
X8993214Y-14109500D01*
X9021786Y-14095214D01*
X9078928Y-14095214D01*
X9107500Y-14109500D01*
X9121786Y-14138071D01*
X9121786Y-14166643D01*
X8978928Y-14195214D01*
X9236071Y-14280929D02*
X9264643Y-14295214D01*
X9321786Y-14295214D01*
X9350357Y-14280929D01*
X9364643Y-14252357D01*
X9364643Y-14238071D01*
X9350357Y-14209500D01*
X9321786Y-14195214D01*
X9278928Y-14195214D01*
X9250357Y-14180929D01*
X9236071Y-14152357D01*
X9236071Y-14138071D01*
X9250357Y-14109500D01*
X9278928Y-14095214D01*
X9321786Y-14095214D01*
X9350357Y-14109500D01*
X9464643Y-14409500D02*
X9478928Y-14395214D01*
X9507500Y-14352357D01*
X9521786Y-14323786D01*
X9536071Y-14280929D01*
X9550357Y-14209500D01*
X9550357Y-14152357D01*
X9536071Y-14080929D01*
X9521786Y-14038071D01*
X9507500Y-14009500D01*
X9478928Y-13966643D01*
X9464643Y-13952357D01*
X2679320Y-14587320D02*
X2679320Y-14523680D01*
X2615680Y-14523680D01*
X2615680Y-14587320D01*
X2679320Y-14587320D01*
X3036071Y-14391214D02*
X3064643Y-14391214D01*
X3093214Y-14405500D01*
X3107500Y-14419786D01*
X3121786Y-14448357D01*
X3136071Y-14505500D01*
X3136071Y-14576929D01*
X3121786Y-14634071D01*
X3107500Y-14662643D01*
X3093214Y-14676929D01*
X3064643Y-14691214D01*
X3036071Y-14691214D01*
X3007500Y-14676929D01*
X2993214Y-14662643D01*
X2978928Y-14634071D01*
X2964643Y-14576929D01*
X2964643Y-14505500D01*
X2978928Y-14448357D01*
X2993214Y-14419786D01*
X3007500Y-14405500D01*
X3036071Y-14391214D01*
X3264643Y-14662643D02*
X3278928Y-14676929D01*
X3264643Y-14691214D01*
X3250357Y-14676929D01*
X3264643Y-14662643D01*
X3264643Y-14691214D01*
X3421786Y-14691214D02*
X3478928Y-14691214D01*
X3507500Y-14676929D01*
X3521786Y-14662643D01*
X3550357Y-14619786D01*
X3564643Y-14562643D01*
X3564643Y-14448357D01*
X3550357Y-14419786D01*
X3536071Y-14405500D01*
X3507500Y-14391214D01*
X3450357Y-14391214D01*
X3421786Y-14405500D01*
X3407500Y-14419786D01*
X3393214Y-14448357D01*
X3393214Y-14519786D01*
X3407500Y-14548357D01*
X3421786Y-14562643D01*
X3450357Y-14576929D01*
X3507500Y-14576929D01*
X3536071Y-14562643D01*
X3550357Y-14548357D01*
X3564643Y-14519786D01*
X3750357Y-14391214D02*
X3778928Y-14391214D01*
X3807500Y-14405500D01*
X3821786Y-14419786D01*
X3836071Y-14448357D01*
X3850357Y-14505500D01*
X3850357Y-14576929D01*
X3836071Y-14634071D01*
X3821786Y-14662643D01*
X3807500Y-14676929D01*
X3778928Y-14691214D01*
X3750357Y-14691214D01*
X3721786Y-14676929D01*
X3707500Y-14662643D01*
X3693214Y-14634071D01*
X3678928Y-14576929D01*
X3678928Y-14505500D01*
X3693214Y-14448357D01*
X3707500Y-14419786D01*
X3721786Y-14405500D01*
X3750357Y-14391214D01*
X3978928Y-14691214D02*
X3978928Y-14491214D01*
X3978928Y-14519786D02*
X3993214Y-14505500D01*
X4021786Y-14491214D01*
X4064643Y-14491214D01*
X4093214Y-14505500D01*
X4107500Y-14534071D01*
X4107500Y-14691214D01*
X4107500Y-14534071D02*
X4121786Y-14505500D01*
X4150357Y-14491214D01*
X4193214Y-14491214D01*
X4221786Y-14505500D01*
X4236071Y-14534071D01*
X4236071Y-14691214D01*
X4378928Y-14691214D02*
X4378928Y-14491214D01*
X4378928Y-14519786D02*
X4393214Y-14505500D01*
X4421786Y-14491214D01*
X4464643Y-14491214D01*
X4493214Y-14505500D01*
X4507500Y-14534071D01*
X4507500Y-14691214D01*
X4507500Y-14534071D02*
X4521786Y-14505500D01*
X4550357Y-14491214D01*
X4593214Y-14491214D01*
X4621786Y-14505500D01*
X4636071Y-14534071D01*
X4636071Y-14691214D01*
X5221786Y-14376929D02*
X4964643Y-14762643D01*
X5607500Y-14391214D02*
X5636071Y-14391214D01*
X5664643Y-14405500D01*
X5678928Y-14419786D01*
X5693214Y-14448357D01*
X5707500Y-14505500D01*
X5707500Y-14576929D01*
X5693214Y-14634071D01*
X5678928Y-14662643D01*
X5664643Y-14676929D01*
X5636071Y-14691214D01*
X5607500Y-14691214D01*
X5578928Y-14676929D01*
X5564643Y-14662643D01*
X5550357Y-14634071D01*
X5536071Y-14576929D01*
X5536071Y-14505500D01*
X5550357Y-14448357D01*
X5564643Y-14419786D01*
X5578928Y-14405500D01*
X5607500Y-14391214D01*
X5836071Y-14662643D02*
X5850357Y-14676929D01*
X5836071Y-14691214D01*
X5821786Y-14676929D01*
X5836071Y-14662643D01*
X5836071Y-14691214D01*
X6036071Y-14391214D02*
X6064643Y-14391214D01*
X6093214Y-14405500D01*
X6107500Y-14419786D01*
X6121786Y-14448357D01*
X6136071Y-14505500D01*
X6136071Y-14576929D01*
X6121786Y-14634071D01*
X6107500Y-14662643D01*
X6093214Y-14676929D01*
X6064643Y-14691214D01*
X6036071Y-14691214D01*
X6007500Y-14676929D01*
X5993214Y-14662643D01*
X5978928Y-14634071D01*
X5964643Y-14576929D01*
X5964643Y-14505500D01*
X5978928Y-14448357D01*
X5993214Y-14419786D01*
X6007500Y-14405500D01*
X6036071Y-14391214D01*
X6236071Y-14391214D02*
X6421786Y-14391214D01*
X6321786Y-14505500D01*
X6364643Y-14505500D01*
X6393214Y-14519786D01*
X6407500Y-14534071D01*
X6421786Y-14562643D01*
X6421786Y-14634071D01*
X6407500Y-14662643D01*
X6393214Y-14676929D01*
X6364643Y-14691214D01*
X6278928Y-14691214D01*
X6250357Y-14676929D01*
X6236071Y-14662643D01*
X6693214Y-14391214D02*
X6550357Y-14391214D01*
X6536071Y-14534071D01*
X6550357Y-14519786D01*
X6578928Y-14505500D01*
X6650357Y-14505500D01*
X6678928Y-14519786D01*
X6693214Y-14534071D01*
X6707500Y-14562643D01*
X6707500Y-14634071D01*
X6693214Y-14662643D01*
X6678928Y-14676929D01*
X6650357Y-14691214D01*
X6578928Y-14691214D01*
X6550357Y-14676929D01*
X6536071Y-14662643D01*
X6821786Y-14391214D02*
X6821786Y-14448357D01*
X6936071Y-14391214D02*
X6936071Y-14448357D01*
X7378928Y-14805500D02*
X7364643Y-14791214D01*
X7336071Y-14748357D01*
X7321786Y-14719786D01*
X7307500Y-14676929D01*
X7293214Y-14605500D01*
X7293214Y-14548357D01*
X7307500Y-14476929D01*
X7321786Y-14434071D01*
X7336071Y-14405500D01*
X7364643Y-14362643D01*
X7378928Y-14348357D01*
X7650357Y-14691214D02*
X7478928Y-14691214D01*
X7564643Y-14691214D02*
X7564643Y-14391214D01*
X7536071Y-14434071D01*
X7507500Y-14462643D01*
X7478928Y-14476929D01*
X7836071Y-14391214D02*
X7864643Y-14391214D01*
X7893214Y-14405500D01*
X7907500Y-14419786D01*
X7921786Y-14448357D01*
X7936071Y-14505500D01*
X7936071Y-14576929D01*
X7921786Y-14634071D01*
X7907500Y-14662643D01*
X7893214Y-14676929D01*
X7864643Y-14691214D01*
X7836071Y-14691214D01*
X7807500Y-14676929D01*
X7793214Y-14662643D01*
X7778928Y-14634071D01*
X7764643Y-14576929D01*
X7764643Y-14505500D01*
X7778928Y-14448357D01*
X7793214Y-14419786D01*
X7807500Y-14405500D01*
X7836071Y-14391214D01*
X8293214Y-14691214D02*
X8293214Y-14391214D01*
X8421786Y-14691214D02*
X8421786Y-14534071D01*
X8407500Y-14505500D01*
X8378928Y-14491214D01*
X8336071Y-14491214D01*
X8307500Y-14505500D01*
X8293214Y-14519786D01*
X8607500Y-14691214D02*
X8578928Y-14676929D01*
X8564643Y-14662643D01*
X8550357Y-14634071D01*
X8550357Y-14548357D01*
X8564643Y-14519786D01*
X8578928Y-14505500D01*
X8607500Y-14491214D01*
X8650357Y-14491214D01*
X8678928Y-14505500D01*
X8693214Y-14519786D01*
X8707500Y-14548357D01*
X8707500Y-14634071D01*
X8693214Y-14662643D01*
X8678928Y-14676929D01*
X8650357Y-14691214D01*
X8607500Y-14691214D01*
X8878928Y-14691214D02*
X8850357Y-14676929D01*
X8836071Y-14648357D01*
X8836071Y-14391214D01*
X9107500Y-14676929D02*
X9078928Y-14691214D01*
X9021786Y-14691214D01*
X8993214Y-14676929D01*
X8978928Y-14648357D01*
X8978928Y-14534071D01*
X8993214Y-14505500D01*
X9021786Y-14491214D01*
X9078928Y-14491214D01*
X9107500Y-14505500D01*
X9121786Y-14534071D01*
X9121786Y-14562643D01*
X8978928Y-14591214D01*
X9236071Y-14676929D02*
X9264643Y-14691214D01*
X9321786Y-14691214D01*
X9350357Y-14676929D01*
X9364643Y-14648357D01*
X9364643Y-14634071D01*
X9350357Y-14605500D01*
X9321786Y-14591214D01*
X9278928Y-14591214D01*
X9250357Y-14576929D01*
X9236071Y-14548357D01*
X9236071Y-14534071D01*
X9250357Y-14505500D01*
X9278928Y-14491214D01*
X9321786Y-14491214D01*
X9350357Y-14505500D01*
X9464643Y-14805500D02*
X9478928Y-14791214D01*
X9507500Y-14748357D01*
X9521786Y-14719786D01*
X9536071Y-14676929D01*
X9550357Y-14605500D01*
X9550357Y-14548357D01*
X9536071Y-14476929D01*
X9521786Y-14434071D01*
X9507500Y-14405500D01*
X9478928Y-14362643D01*
X9464643Y-14348357D01*
X2642500Y-15001500D02*
X2692500Y-14951500D01*
X2642500Y-14901500D01*
X2592500Y-14951500D01*
X2642500Y-15001500D01*
X3136071Y-15087214D02*
X2964643Y-15087214D01*
X3050357Y-15087214D02*
X3050357Y-14787214D01*
X3021786Y-14830071D01*
X2993214Y-14858643D01*
X2964643Y-14872929D01*
X3264643Y-15058643D02*
X3278928Y-15072929D01*
X3264643Y-15087214D01*
X3250357Y-15072929D01*
X3264643Y-15058643D01*
X3264643Y-15087214D01*
X3464643Y-14787214D02*
X3493214Y-14787214D01*
X3521786Y-14801500D01*
X3536071Y-14815786D01*
X3550357Y-14844357D01*
X3564643Y-14901500D01*
X3564643Y-14972929D01*
X3550357Y-15030071D01*
X3536071Y-15058643D01*
X3521786Y-15072929D01*
X3493214Y-15087214D01*
X3464643Y-15087214D01*
X3436071Y-15072929D01*
X3421786Y-15058643D01*
X3407500Y-15030071D01*
X3393214Y-14972929D01*
X3393214Y-14901500D01*
X3407500Y-14844357D01*
X3421786Y-14815786D01*
X3436071Y-14801500D01*
X3464643Y-14787214D01*
X3750357Y-14787214D02*
X3778928Y-14787214D01*
X3807500Y-14801500D01*
X3821786Y-14815786D01*
X3836071Y-14844357D01*
X3850357Y-14901500D01*
X3850357Y-14972929D01*
X3836071Y-15030071D01*
X3821786Y-15058643D01*
X3807500Y-15072929D01*
X3778928Y-15087214D01*
X3750357Y-15087214D01*
X3721786Y-15072929D01*
X3707500Y-15058643D01*
X3693214Y-15030071D01*
X3678928Y-14972929D01*
X3678928Y-14901500D01*
X3693214Y-14844357D01*
X3707500Y-14815786D01*
X3721786Y-14801500D01*
X3750357Y-14787214D01*
X3978928Y-15087214D02*
X3978928Y-14887214D01*
X3978928Y-14915786D02*
X3993214Y-14901500D01*
X4021786Y-14887214D01*
X4064643Y-14887214D01*
X4093214Y-14901500D01*
X4107500Y-14930071D01*
X4107500Y-15087214D01*
X4107500Y-14930071D02*
X4121786Y-14901500D01*
X4150357Y-14887214D01*
X4193214Y-14887214D01*
X4221786Y-14901500D01*
X4236071Y-14930071D01*
X4236071Y-15087214D01*
X4378928Y-15087214D02*
X4378928Y-14887214D01*
X4378928Y-14915786D02*
X4393214Y-14901500D01*
X4421786Y-14887214D01*
X4464643Y-14887214D01*
X4493214Y-14901500D01*
X4507500Y-14930071D01*
X4507500Y-15087214D01*
X4507500Y-14930071D02*
X4521786Y-14901500D01*
X4550357Y-14887214D01*
X4593214Y-14887214D01*
X4621786Y-14901500D01*
X4636071Y-14930071D01*
X4636071Y-15087214D01*
X5221786Y-14772929D02*
X4964643Y-15158643D01*
X5607500Y-14787214D02*
X5636071Y-14787214D01*
X5664643Y-14801500D01*
X5678928Y-14815786D01*
X5693214Y-14844357D01*
X5707500Y-14901500D01*
X5707500Y-14972929D01*
X5693214Y-15030071D01*
X5678928Y-15058643D01*
X5664643Y-15072929D01*
X5636071Y-15087214D01*
X5607500Y-15087214D01*
X5578928Y-15072929D01*
X5564643Y-15058643D01*
X5550357Y-15030071D01*
X5536071Y-14972929D01*
X5536071Y-14901500D01*
X5550357Y-14844357D01*
X5564643Y-14815786D01*
X5578928Y-14801500D01*
X5607500Y-14787214D01*
X5836071Y-15058643D02*
X5850357Y-15072929D01*
X5836071Y-15087214D01*
X5821786Y-15072929D01*
X5836071Y-15058643D01*
X5836071Y-15087214D01*
X6036071Y-14787214D02*
X6064643Y-14787214D01*
X6093214Y-14801500D01*
X6107500Y-14815786D01*
X6121786Y-14844357D01*
X6136071Y-14901500D01*
X6136071Y-14972929D01*
X6121786Y-15030071D01*
X6107500Y-15058643D01*
X6093214Y-15072929D01*
X6064643Y-15087214D01*
X6036071Y-15087214D01*
X6007500Y-15072929D01*
X5993214Y-15058643D01*
X5978928Y-15030071D01*
X5964643Y-14972929D01*
X5964643Y-14901500D01*
X5978928Y-14844357D01*
X5993214Y-14815786D01*
X6007500Y-14801500D01*
X6036071Y-14787214D01*
X6236071Y-14787214D02*
X6421786Y-14787214D01*
X6321786Y-14901500D01*
X6364643Y-14901500D01*
X6393214Y-14915786D01*
X6407500Y-14930071D01*
X6421786Y-14958643D01*
X6421786Y-15030071D01*
X6407500Y-15058643D01*
X6393214Y-15072929D01*
X6364643Y-15087214D01*
X6278928Y-15087214D01*
X6250357Y-15072929D01*
X6236071Y-15058643D01*
X6564643Y-15087214D02*
X6621786Y-15087214D01*
X6650357Y-15072929D01*
X6664643Y-15058643D01*
X6693214Y-15015786D01*
X6707500Y-14958643D01*
X6707500Y-14844357D01*
X6693214Y-14815786D01*
X6678928Y-14801500D01*
X6650357Y-14787214D01*
X6593214Y-14787214D01*
X6564643Y-14801500D01*
X6550357Y-14815786D01*
X6536071Y-14844357D01*
X6536071Y-14915786D01*
X6550357Y-14944357D01*
X6564643Y-14958643D01*
X6593214Y-14972929D01*
X6650357Y-14972929D01*
X6678928Y-14958643D01*
X6693214Y-14944357D01*
X6707500Y-14915786D01*
X6821786Y-14787214D02*
X6821786Y-14844357D01*
X6936071Y-14787214D02*
X6936071Y-14844357D01*
X7378928Y-15201500D02*
X7364643Y-15187214D01*
X7336071Y-15144357D01*
X7321786Y-15115786D01*
X7307500Y-15072929D01*
X7293214Y-15001500D01*
X7293214Y-14944357D01*
X7307500Y-14872929D01*
X7321786Y-14830071D01*
X7336071Y-14801500D01*
X7364643Y-14758643D01*
X7378928Y-14744357D01*
X7636071Y-14787214D02*
X7493214Y-14787214D01*
X7478928Y-14930071D01*
X7493214Y-14915786D01*
X7521786Y-14901500D01*
X7593214Y-14901500D01*
X7621786Y-14915786D01*
X7636071Y-14930071D01*
X7650357Y-14958643D01*
X7650357Y-15030071D01*
X7636071Y-15058643D01*
X7621786Y-15072929D01*
X7593214Y-15087214D01*
X7521786Y-15087214D01*
X7493214Y-15072929D01*
X7478928Y-15058643D01*
X7750357Y-14787214D02*
X7950357Y-14787214D01*
X7821786Y-15087214D01*
X8293214Y-15087214D02*
X8293214Y-14787214D01*
X8421786Y-15087214D02*
X8421786Y-14930071D01*
X8407500Y-14901500D01*
X8378928Y-14887214D01*
X8336071Y-14887214D01*
X8307500Y-14901500D01*
X8293214Y-14915786D01*
X8607500Y-15087214D02*
X8578928Y-15072929D01*
X8564643Y-15058643D01*
X8550357Y-15030071D01*
X8550357Y-14944357D01*
X8564643Y-14915786D01*
X8578928Y-14901500D01*
X8607500Y-14887214D01*
X8650357Y-14887214D01*
X8678928Y-14901500D01*
X8693214Y-14915786D01*
X8707500Y-14944357D01*
X8707500Y-15030071D01*
X8693214Y-15058643D01*
X8678928Y-15072929D01*
X8650357Y-15087214D01*
X8607500Y-15087214D01*
X8878928Y-15087214D02*
X8850357Y-15072929D01*
X8836071Y-15044357D01*
X8836071Y-14787214D01*
X9107500Y-15072929D02*
X9078928Y-15087214D01*
X9021786Y-15087214D01*
X8993214Y-15072929D01*
X8978928Y-15044357D01*
X8978928Y-14930071D01*
X8993214Y-14901500D01*
X9021786Y-14887214D01*
X9078928Y-14887214D01*
X9107500Y-14901500D01*
X9121786Y-14930071D01*
X9121786Y-14958643D01*
X8978928Y-14987214D01*
X9236071Y-15072929D02*
X9264643Y-15087214D01*
X9321786Y-15087214D01*
X9350357Y-15072929D01*
X9364643Y-15044357D01*
X9364643Y-15030071D01*
X9350357Y-15001500D01*
X9321786Y-14987214D01*
X9278928Y-14987214D01*
X9250357Y-14972929D01*
X9236071Y-14944357D01*
X9236071Y-14930071D01*
X9250357Y-14901500D01*
X9278928Y-14887214D01*
X9321786Y-14887214D01*
X9350357Y-14901500D01*
X9464643Y-15201500D02*
X9478928Y-15187214D01*
X9507500Y-15144357D01*
X9521786Y-15115786D01*
X9536071Y-15072929D01*
X9550357Y-15001500D01*
X9550357Y-14944357D01*
X9536071Y-14872929D01*
X9521786Y-14830071D01*
X9507500Y-14801500D01*
X9478928Y-14758643D01*
X9464643Y-14744357D01*
X2582500Y-15292500D02*
X2692500Y-15402500D01*
X2692500Y-15292500D02*
X2582500Y-15402500D01*
X2692500Y-15347500D02*
G75*
G03*
X2692500Y-15347500I-55000J0D01*
G01*
X3136071Y-15483214D02*
X2964643Y-15483214D01*
X3050357Y-15483214D02*
X3050357Y-15183214D01*
X3021786Y-15226071D01*
X2993214Y-15254643D01*
X2964643Y-15268929D01*
X3264643Y-15454643D02*
X3278928Y-15468929D01*
X3264643Y-15483214D01*
X3250357Y-15468929D01*
X3264643Y-15454643D01*
X3264643Y-15483214D01*
X3564643Y-15483214D02*
X3393214Y-15483214D01*
X3478928Y-15483214D02*
X3478928Y-15183214D01*
X3450357Y-15226071D01*
X3421786Y-15254643D01*
X3393214Y-15268929D01*
X3750357Y-15183214D02*
X3778928Y-15183214D01*
X3807500Y-15197500D01*
X3821786Y-15211786D01*
X3836071Y-15240357D01*
X3850357Y-15297500D01*
X3850357Y-15368929D01*
X3836071Y-15426071D01*
X3821786Y-15454643D01*
X3807500Y-15468929D01*
X3778928Y-15483214D01*
X3750357Y-15483214D01*
X3721786Y-15468929D01*
X3707500Y-15454643D01*
X3693214Y-15426071D01*
X3678928Y-15368929D01*
X3678928Y-15297500D01*
X3693214Y-15240357D01*
X3707500Y-15211786D01*
X3721786Y-15197500D01*
X3750357Y-15183214D01*
X3978928Y-15483214D02*
X3978928Y-15283214D01*
X3978928Y-15311786D02*
X3993214Y-15297500D01*
X4021786Y-15283214D01*
X4064643Y-15283214D01*
X4093214Y-15297500D01*
X4107500Y-15326071D01*
X4107500Y-15483214D01*
X4107500Y-15326071D02*
X4121786Y-15297500D01*
X4150357Y-15283214D01*
X4193214Y-15283214D01*
X4221786Y-15297500D01*
X4236071Y-15326071D01*
X4236071Y-15483214D01*
X4378928Y-15483214D02*
X4378928Y-15283214D01*
X4378928Y-15311786D02*
X4393214Y-15297500D01*
X4421786Y-15283214D01*
X4464643Y-15283214D01*
X4493214Y-15297500D01*
X4507500Y-15326071D01*
X4507500Y-15483214D01*
X4507500Y-15326071D02*
X4521786Y-15297500D01*
X4550357Y-15283214D01*
X4593214Y-15283214D01*
X4621786Y-15297500D01*
X4636071Y-15326071D01*
X4636071Y-15483214D01*
X5221786Y-15168929D02*
X4964643Y-15554643D01*
X5607500Y-15183214D02*
X5636071Y-15183214D01*
X5664643Y-15197500D01*
X5678928Y-15211786D01*
X5693214Y-15240357D01*
X5707500Y-15297500D01*
X5707500Y-15368929D01*
X5693214Y-15426071D01*
X5678928Y-15454643D01*
X5664643Y-15468929D01*
X5636071Y-15483214D01*
X5607500Y-15483214D01*
X5578928Y-15468929D01*
X5564643Y-15454643D01*
X5550357Y-15426071D01*
X5536071Y-15368929D01*
X5536071Y-15297500D01*
X5550357Y-15240357D01*
X5564643Y-15211786D01*
X5578928Y-15197500D01*
X5607500Y-15183214D01*
X5836071Y-15454643D02*
X5850357Y-15468929D01*
X5836071Y-15483214D01*
X5821786Y-15468929D01*
X5836071Y-15454643D01*
X5836071Y-15483214D01*
X6036071Y-15183214D02*
X6064643Y-15183214D01*
X6093214Y-15197500D01*
X6107500Y-15211786D01*
X6121786Y-15240357D01*
X6136071Y-15297500D01*
X6136071Y-15368929D01*
X6121786Y-15426071D01*
X6107500Y-15454643D01*
X6093214Y-15468929D01*
X6064643Y-15483214D01*
X6036071Y-15483214D01*
X6007500Y-15468929D01*
X5993214Y-15454643D01*
X5978928Y-15426071D01*
X5964643Y-15368929D01*
X5964643Y-15297500D01*
X5978928Y-15240357D01*
X5993214Y-15211786D01*
X6007500Y-15197500D01*
X6036071Y-15183214D01*
X6393214Y-15283214D02*
X6393214Y-15483214D01*
X6321786Y-15168929D02*
X6250357Y-15383214D01*
X6436071Y-15383214D01*
X6521786Y-15183214D02*
X6707500Y-15183214D01*
X6607500Y-15297500D01*
X6650357Y-15297500D01*
X6678928Y-15311786D01*
X6693214Y-15326071D01*
X6707500Y-15354643D01*
X6707500Y-15426071D01*
X6693214Y-15454643D01*
X6678928Y-15468929D01*
X6650357Y-15483214D01*
X6564643Y-15483214D01*
X6536071Y-15468929D01*
X6521786Y-15454643D01*
X6821786Y-15183214D02*
X6821786Y-15240357D01*
X6936071Y-15183214D02*
X6936071Y-15240357D01*
X7378928Y-15597500D02*
X7364643Y-15583214D01*
X7336071Y-15540357D01*
X7321786Y-15511786D01*
X7307500Y-15468929D01*
X7293214Y-15397500D01*
X7293214Y-15340357D01*
X7307500Y-15268929D01*
X7321786Y-15226071D01*
X7336071Y-15197500D01*
X7364643Y-15154643D01*
X7378928Y-15140357D01*
X7464643Y-15183214D02*
X7650357Y-15183214D01*
X7550357Y-15297500D01*
X7593214Y-15297500D01*
X7621786Y-15311786D01*
X7636071Y-15326071D01*
X7650357Y-15354643D01*
X7650357Y-15426071D01*
X7636071Y-15454643D01*
X7621786Y-15468929D01*
X7593214Y-15483214D01*
X7507500Y-15483214D01*
X7478928Y-15468929D01*
X7464643Y-15454643D01*
X8007500Y-15483214D02*
X8007500Y-15183214D01*
X8136071Y-15483214D02*
X8136071Y-15326071D01*
X8121786Y-15297500D01*
X8093214Y-15283214D01*
X8050357Y-15283214D01*
X8021786Y-15297500D01*
X8007500Y-15311786D01*
X8321786Y-15483214D02*
X8293214Y-15468929D01*
X8278928Y-15454643D01*
X8264643Y-15426071D01*
X8264643Y-15340357D01*
X8278928Y-15311786D01*
X8293214Y-15297500D01*
X8321786Y-15283214D01*
X8364643Y-15283214D01*
X8393214Y-15297500D01*
X8407500Y-15311786D01*
X8421786Y-15340357D01*
X8421786Y-15426071D01*
X8407500Y-15454643D01*
X8393214Y-15468929D01*
X8364643Y-15483214D01*
X8321786Y-15483214D01*
X8593214Y-15483214D02*
X8564643Y-15468929D01*
X8550357Y-15440357D01*
X8550357Y-15183214D01*
X8821786Y-15468929D02*
X8793214Y-15483214D01*
X8736071Y-15483214D01*
X8707500Y-15468929D01*
X8693214Y-15440357D01*
X8693214Y-15326071D01*
X8707500Y-15297500D01*
X8736071Y-15283214D01*
X8793214Y-15283214D01*
X8821786Y-15297500D01*
X8836071Y-15326071D01*
X8836071Y-15354643D01*
X8693214Y-15383214D01*
X8950357Y-15468929D02*
X8978928Y-15483214D01*
X9036071Y-15483214D01*
X9064643Y-15468929D01*
X9078928Y-15440357D01*
X9078928Y-15426071D01*
X9064643Y-15397500D01*
X9036071Y-15383214D01*
X8993214Y-15383214D01*
X8964643Y-15368929D01*
X8950357Y-15340357D01*
X8950357Y-15326071D01*
X8964643Y-15297500D01*
X8993214Y-15283214D01*
X9036071Y-15283214D01*
X9064643Y-15297500D01*
X9178928Y-15597500D02*
X9193214Y-15583214D01*
X9221786Y-15540357D01*
X9236071Y-15511786D01*
X9250357Y-15468929D01*
X9264643Y-15397500D01*
X9264643Y-15340357D01*
X9250357Y-15268929D01*
X9236071Y-15226071D01*
X9221786Y-15197500D01*
X9193214Y-15154643D01*
X9178928Y-15140357D01*
X2542500Y-15668500D02*
X2692500Y-15818500D01*
X2692500Y-15668500D02*
X2542500Y-15818500D01*
X2617500Y-15668500D02*
X2617500Y-15818500D01*
X2542500Y-15743500D02*
X2692500Y-15743500D01*
X3136071Y-15879214D02*
X2964643Y-15879214D01*
X3050357Y-15879214D02*
X3050357Y-15579214D01*
X3021786Y-15622071D01*
X2993214Y-15650643D01*
X2964643Y-15664929D01*
X3264643Y-15850643D02*
X3278928Y-15864929D01*
X3264643Y-15879214D01*
X3250357Y-15864929D01*
X3264643Y-15850643D01*
X3264643Y-15879214D01*
X3550357Y-15579214D02*
X3407500Y-15579214D01*
X3393214Y-15722071D01*
X3407500Y-15707786D01*
X3436071Y-15693500D01*
X3507500Y-15693500D01*
X3536071Y-15707786D01*
X3550357Y-15722071D01*
X3564643Y-15750643D01*
X3564643Y-15822071D01*
X3550357Y-15850643D01*
X3536071Y-15864929D01*
X3507500Y-15879214D01*
X3436071Y-15879214D01*
X3407500Y-15864929D01*
X3393214Y-15850643D01*
X3750357Y-15579214D02*
X3778928Y-15579214D01*
X3807500Y-15593500D01*
X3821786Y-15607786D01*
X3836071Y-15636357D01*
X3850357Y-15693500D01*
X3850357Y-15764929D01*
X3836071Y-15822071D01*
X3821786Y-15850643D01*
X3807500Y-15864929D01*
X3778928Y-15879214D01*
X3750357Y-15879214D01*
X3721786Y-15864929D01*
X3707500Y-15850643D01*
X3693214Y-15822071D01*
X3678928Y-15764929D01*
X3678928Y-15693500D01*
X3693214Y-15636357D01*
X3707500Y-15607786D01*
X3721786Y-15593500D01*
X3750357Y-15579214D01*
X3978928Y-15879214D02*
X3978928Y-15679214D01*
X3978928Y-15707786D02*
X3993214Y-15693500D01*
X4021786Y-15679214D01*
X4064643Y-15679214D01*
X4093214Y-15693500D01*
X4107500Y-15722071D01*
X4107500Y-15879214D01*
X4107500Y-15722071D02*
X4121786Y-15693500D01*
X4150357Y-15679214D01*
X4193214Y-15679214D01*
X4221786Y-15693500D01*
X4236071Y-15722071D01*
X4236071Y-15879214D01*
X4378928Y-15879214D02*
X4378928Y-15679214D01*
X4378928Y-15707786D02*
X4393214Y-15693500D01*
X4421786Y-15679214D01*
X4464643Y-15679214D01*
X4493214Y-15693500D01*
X4507500Y-15722071D01*
X4507500Y-15879214D01*
X4507500Y-15722071D02*
X4521786Y-15693500D01*
X4550357Y-15679214D01*
X4593214Y-15679214D01*
X4621786Y-15693500D01*
X4636071Y-15722071D01*
X4636071Y-15879214D01*
X5221786Y-15564929D02*
X4964643Y-15950643D01*
X5607500Y-15579214D02*
X5636071Y-15579214D01*
X5664643Y-15593500D01*
X5678928Y-15607786D01*
X5693214Y-15636357D01*
X5707500Y-15693500D01*
X5707500Y-15764929D01*
X5693214Y-15822071D01*
X5678928Y-15850643D01*
X5664643Y-15864929D01*
X5636071Y-15879214D01*
X5607500Y-15879214D01*
X5578928Y-15864929D01*
X5564643Y-15850643D01*
X5550357Y-15822071D01*
X5536071Y-15764929D01*
X5536071Y-15693500D01*
X5550357Y-15636357D01*
X5564643Y-15607786D01*
X5578928Y-15593500D01*
X5607500Y-15579214D01*
X5836071Y-15850643D02*
X5850357Y-15864929D01*
X5836071Y-15879214D01*
X5821786Y-15864929D01*
X5836071Y-15850643D01*
X5836071Y-15879214D01*
X6036071Y-15579214D02*
X6064643Y-15579214D01*
X6093214Y-15593500D01*
X6107500Y-15607786D01*
X6121786Y-15636357D01*
X6136071Y-15693500D01*
X6136071Y-15764929D01*
X6121786Y-15822071D01*
X6107500Y-15850643D01*
X6093214Y-15864929D01*
X6064643Y-15879214D01*
X6036071Y-15879214D01*
X6007500Y-15864929D01*
X5993214Y-15850643D01*
X5978928Y-15822071D01*
X5964643Y-15764929D01*
X5964643Y-15693500D01*
X5978928Y-15636357D01*
X5993214Y-15607786D01*
X6007500Y-15593500D01*
X6036071Y-15579214D01*
X6407500Y-15579214D02*
X6264643Y-15579214D01*
X6250357Y-15722071D01*
X6264643Y-15707786D01*
X6293214Y-15693500D01*
X6364643Y-15693500D01*
X6393214Y-15707786D01*
X6407500Y-15722071D01*
X6421786Y-15750643D01*
X6421786Y-15822071D01*
X6407500Y-15850643D01*
X6393214Y-15864929D01*
X6364643Y-15879214D01*
X6293214Y-15879214D01*
X6264643Y-15864929D01*
X6250357Y-15850643D01*
X6564643Y-15879214D02*
X6621786Y-15879214D01*
X6650357Y-15864929D01*
X6664643Y-15850643D01*
X6693214Y-15807786D01*
X6707500Y-15750643D01*
X6707500Y-15636357D01*
X6693214Y-15607786D01*
X6678928Y-15593500D01*
X6650357Y-15579214D01*
X6593214Y-15579214D01*
X6564643Y-15593500D01*
X6550357Y-15607786D01*
X6536071Y-15636357D01*
X6536071Y-15707786D01*
X6550357Y-15736357D01*
X6564643Y-15750643D01*
X6593214Y-15764929D01*
X6650357Y-15764929D01*
X6678928Y-15750643D01*
X6693214Y-15736357D01*
X6707500Y-15707786D01*
X6821786Y-15579214D02*
X6821786Y-15636357D01*
X6936071Y-15579214D02*
X6936071Y-15636357D01*
X7378928Y-15993500D02*
X7364643Y-15979214D01*
X7336071Y-15936357D01*
X7321786Y-15907786D01*
X7307500Y-15864929D01*
X7293214Y-15793500D01*
X7293214Y-15736357D01*
X7307500Y-15664929D01*
X7321786Y-15622071D01*
X7336071Y-15593500D01*
X7364643Y-15550643D01*
X7378928Y-15536357D01*
X7478928Y-15607786D02*
X7493214Y-15593500D01*
X7521786Y-15579214D01*
X7593214Y-15579214D01*
X7621786Y-15593500D01*
X7636071Y-15607786D01*
X7650357Y-15636357D01*
X7650357Y-15664929D01*
X7636071Y-15707786D01*
X7464643Y-15879214D01*
X7650357Y-15879214D01*
X7764643Y-15607786D02*
X7778928Y-15593500D01*
X7807500Y-15579214D01*
X7878928Y-15579214D01*
X7907500Y-15593500D01*
X7921786Y-15607786D01*
X7936071Y-15636357D01*
X7936071Y-15664929D01*
X7921786Y-15707786D01*
X7750357Y-15879214D01*
X7936071Y-15879214D01*
X8293214Y-15879214D02*
X8293214Y-15579214D01*
X8421786Y-15879214D02*
X8421786Y-15722071D01*
X8407500Y-15693500D01*
X8378928Y-15679214D01*
X8336071Y-15679214D01*
X8307500Y-15693500D01*
X8293214Y-15707786D01*
X8607500Y-15879214D02*
X8578928Y-15864929D01*
X8564643Y-15850643D01*
X8550357Y-15822071D01*
X8550357Y-15736357D01*
X8564643Y-15707786D01*
X8578928Y-15693500D01*
X8607500Y-15679214D01*
X8650357Y-15679214D01*
X8678928Y-15693500D01*
X8693214Y-15707786D01*
X8707500Y-15736357D01*
X8707500Y-15822071D01*
X8693214Y-15850643D01*
X8678928Y-15864929D01*
X8650357Y-15879214D01*
X8607500Y-15879214D01*
X8878928Y-15879214D02*
X8850357Y-15864929D01*
X8836071Y-15836357D01*
X8836071Y-15579214D01*
X9107500Y-15864929D02*
X9078928Y-15879214D01*
X9021786Y-15879214D01*
X8993214Y-15864929D01*
X8978928Y-15836357D01*
X8978928Y-15722071D01*
X8993214Y-15693500D01*
X9021786Y-15679214D01*
X9078928Y-15679214D01*
X9107500Y-15693500D01*
X9121786Y-15722071D01*
X9121786Y-15750643D01*
X8978928Y-15779214D01*
X9236071Y-15864929D02*
X9264643Y-15879214D01*
X9321786Y-15879214D01*
X9350357Y-15864929D01*
X9364643Y-15836357D01*
X9364643Y-15822071D01*
X9350357Y-15793500D01*
X9321786Y-15779214D01*
X9278928Y-15779214D01*
X9250357Y-15764929D01*
X9236071Y-15736357D01*
X9236071Y-15722071D01*
X9250357Y-15693500D01*
X9278928Y-15679214D01*
X9321786Y-15679214D01*
X9350357Y-15693500D01*
X9464643Y-15993500D02*
X9478928Y-15979214D01*
X9507500Y-15936357D01*
X9521786Y-15907786D01*
X9536071Y-15864929D01*
X9550357Y-15793500D01*
X9550357Y-15736357D01*
X9536071Y-15664929D01*
X9521786Y-15622071D01*
X9507500Y-15593500D01*
X9478928Y-15550643D01*
X9464643Y-15536357D01*
X2292500Y-15939500D02*
X2692500Y-16339500D01*
X2692500Y-15939500D02*
X2292500Y-16339500D01*
X2633923Y-16280923D02*
X2633923Y-15998077D01*
X2351077Y-15998077D01*
X2351077Y-16280923D01*
X2633923Y-16280923D01*
X3107500Y-16075214D02*
X3107500Y-16275214D01*
X3036071Y-15960929D02*
X2964643Y-16175214D01*
X3150357Y-16175214D01*
X3264643Y-16246643D02*
X3278928Y-16260929D01*
X3264643Y-16275214D01*
X3250357Y-16260929D01*
X3264643Y-16246643D01*
X3264643Y-16275214D01*
X3464643Y-15975214D02*
X3493214Y-15975214D01*
X3521786Y-15989500D01*
X3536071Y-16003786D01*
X3550357Y-16032357D01*
X3564643Y-16089500D01*
X3564643Y-16160929D01*
X3550357Y-16218071D01*
X3536071Y-16246643D01*
X3521786Y-16260929D01*
X3493214Y-16275214D01*
X3464643Y-16275214D01*
X3436071Y-16260929D01*
X3421786Y-16246643D01*
X3407500Y-16218071D01*
X3393214Y-16160929D01*
X3393214Y-16089500D01*
X3407500Y-16032357D01*
X3421786Y-16003786D01*
X3436071Y-15989500D01*
X3464643Y-15975214D01*
X3750357Y-15975214D02*
X3778928Y-15975214D01*
X3807500Y-15989500D01*
X3821786Y-16003786D01*
X3836071Y-16032357D01*
X3850357Y-16089500D01*
X3850357Y-16160929D01*
X3836071Y-16218071D01*
X3821786Y-16246643D01*
X3807500Y-16260929D01*
X3778928Y-16275214D01*
X3750357Y-16275214D01*
X3721786Y-16260929D01*
X3707500Y-16246643D01*
X3693214Y-16218071D01*
X3678928Y-16160929D01*
X3678928Y-16089500D01*
X3693214Y-16032357D01*
X3707500Y-16003786D01*
X3721786Y-15989500D01*
X3750357Y-15975214D01*
X3978928Y-16275214D02*
X3978928Y-16075214D01*
X3978928Y-16103786D02*
X3993214Y-16089500D01*
X4021786Y-16075214D01*
X4064643Y-16075214D01*
X4093214Y-16089500D01*
X4107500Y-16118071D01*
X4107500Y-16275214D01*
X4107500Y-16118071D02*
X4121786Y-16089500D01*
X4150357Y-16075214D01*
X4193214Y-16075214D01*
X4221786Y-16089500D01*
X4236071Y-16118071D01*
X4236071Y-16275214D01*
X4378928Y-16275214D02*
X4378928Y-16075214D01*
X4378928Y-16103786D02*
X4393214Y-16089500D01*
X4421786Y-16075214D01*
X4464643Y-16075214D01*
X4493214Y-16089500D01*
X4507500Y-16118071D01*
X4507500Y-16275214D01*
X4507500Y-16118071D02*
X4521786Y-16089500D01*
X4550357Y-16075214D01*
X4593214Y-16075214D01*
X4621786Y-16089500D01*
X4636071Y-16118071D01*
X4636071Y-16275214D01*
X5221786Y-15960929D02*
X4964643Y-16346643D01*
X5607500Y-15975214D02*
X5636071Y-15975214D01*
X5664643Y-15989500D01*
X5678928Y-16003786D01*
X5693214Y-16032357D01*
X5707500Y-16089500D01*
X5707500Y-16160929D01*
X5693214Y-16218071D01*
X5678928Y-16246643D01*
X5664643Y-16260929D01*
X5636071Y-16275214D01*
X5607500Y-16275214D01*
X5578928Y-16260929D01*
X5564643Y-16246643D01*
X5550357Y-16218071D01*
X5536071Y-16160929D01*
X5536071Y-16089500D01*
X5550357Y-16032357D01*
X5564643Y-16003786D01*
X5578928Y-15989500D01*
X5607500Y-15975214D01*
X5836071Y-16246643D02*
X5850357Y-16260929D01*
X5836071Y-16275214D01*
X5821786Y-16260929D01*
X5836071Y-16246643D01*
X5836071Y-16275214D01*
X6136071Y-16275214D02*
X5964643Y-16275214D01*
X6050357Y-16275214D02*
X6050357Y-15975214D01*
X6021786Y-16018071D01*
X5993214Y-16046643D01*
X5964643Y-16060929D01*
X6407500Y-15975214D02*
X6264643Y-15975214D01*
X6250357Y-16118071D01*
X6264643Y-16103786D01*
X6293214Y-16089500D01*
X6364643Y-16089500D01*
X6393214Y-16103786D01*
X6407500Y-16118071D01*
X6421786Y-16146643D01*
X6421786Y-16218071D01*
X6407500Y-16246643D01*
X6393214Y-16260929D01*
X6364643Y-16275214D01*
X6293214Y-16275214D01*
X6264643Y-16260929D01*
X6250357Y-16246643D01*
X6521786Y-15975214D02*
X6721786Y-15975214D01*
X6593214Y-16275214D01*
X6821786Y-15975214D02*
X6821786Y-16032357D01*
X6936071Y-15975214D02*
X6936071Y-16032357D01*
X7378928Y-16389500D02*
X7364643Y-16375214D01*
X7336071Y-16332357D01*
X7321786Y-16303786D01*
X7307500Y-16260929D01*
X7293214Y-16189500D01*
X7293214Y-16132357D01*
X7307500Y-16060929D01*
X7321786Y-16018071D01*
X7336071Y-15989500D01*
X7364643Y-15946643D01*
X7378928Y-15932357D01*
X7650357Y-16275214D02*
X7478928Y-16275214D01*
X7564643Y-16275214D02*
X7564643Y-15975214D01*
X7536071Y-16018071D01*
X7507500Y-16046643D01*
X7478928Y-16060929D01*
X8007500Y-16275214D02*
X8007500Y-15975214D01*
X8136071Y-16275214D02*
X8136071Y-16118071D01*
X8121786Y-16089500D01*
X8093214Y-16075214D01*
X8050357Y-16075214D01*
X8021786Y-16089500D01*
X8007500Y-16103786D01*
X8321786Y-16275214D02*
X8293214Y-16260929D01*
X8278928Y-16246643D01*
X8264643Y-16218071D01*
X8264643Y-16132357D01*
X8278928Y-16103786D01*
X8293214Y-16089500D01*
X8321786Y-16075214D01*
X8364643Y-16075214D01*
X8393214Y-16089500D01*
X8407500Y-16103786D01*
X8421786Y-16132357D01*
X8421786Y-16218071D01*
X8407500Y-16246643D01*
X8393214Y-16260929D01*
X8364643Y-16275214D01*
X8321786Y-16275214D01*
X8593214Y-16275214D02*
X8564643Y-16260929D01*
X8550357Y-16232357D01*
X8550357Y-15975214D01*
X8821786Y-16260929D02*
X8793214Y-16275214D01*
X8736071Y-16275214D01*
X8707500Y-16260929D01*
X8693214Y-16232357D01*
X8693214Y-16118071D01*
X8707500Y-16089500D01*
X8736071Y-16075214D01*
X8793214Y-16075214D01*
X8821786Y-16089500D01*
X8836071Y-16118071D01*
X8836071Y-16146643D01*
X8693214Y-16175214D01*
X8936071Y-16389500D02*
X8950357Y-16375214D01*
X8978928Y-16332357D01*
X8993214Y-16303786D01*
X9007500Y-16260929D01*
X9021786Y-16189500D01*
X9021786Y-16132357D01*
X9007500Y-16060929D01*
X8993214Y-16018071D01*
X8978928Y-15989500D01*
X8950357Y-15946643D01*
X8936071Y-15932357D01*
M02*
